<svg width="2113pt" height="878pt"
 viewBox="0.00 0.00 2113.00 878.00" xmlns="http://www.w3.org/2000/svg" xmlns:xlink="http://www.w3.org/1999/xlink">
<g id="graph0" class="graph" transform="scale(1 1) rotate(0) translate(4 874)">
<title>Perl</title>
<polygon fill="#ffffff" stroke="transparent" points="-4,4 -4,-874 2109,-874 2109,4 -4,4"/>
<!-- Treatment -->
<g id="node1" class="node">
<title>Treatment</title>
<path fill="none" stroke="#000000" d="M32.5,-144.5C32.5,-144.5 335.5,-144.5 335.5,-144.5 341.5,-144.5 347.5,-150.5 347.5,-156.5 347.5,-156.5 347.5,-270.5 347.5,-270.5 347.5,-276.5 341.5,-282.5 335.5,-282.5 335.5,-282.5 32.5,-282.5 32.5,-282.5 26.5,-282.5 20.5,-276.5 20.5,-270.5 20.5,-270.5 20.5,-156.5 20.5,-156.5 20.5,-150.5 26.5,-144.5 32.5,-144.5"/>
<text text-anchor="middle" x="66.5" y="-209.8" font-family="Times,serif" font-size="14.00" fill="#000000">Treatment</text>
<polyline fill="none" stroke="#000000" points="112.5,-144.5 112.5,-282.5 "/>
<text text-anchor="middle" x="123" y="-209.8" font-family="Times,serif" font-size="14.00" fill="#000000"> </text>
<polyline fill="none" stroke="#000000" points="133.5,-144.5 133.5,-282.5 "/>
<text text-anchor="middle" x="230" y="-267.3" font-family="Times,serif" font-size="14.00" fill="#000000">days_to_treatment_start</text>
<polyline fill="none" stroke="#000000" points="133.5,-259.5 326.5,-259.5 "/>
<text text-anchor="middle" x="230" y="-244.3" font-family="Times,serif" font-size="14.00" fill="#000000">days_treatment_end</text>
<polyline fill="none" stroke="#000000" points="133.5,-236.5 326.5,-236.5 "/>
<text text-anchor="middle" x="230" y="-221.3" font-family="Times,serif" font-size="14.00" fill="#000000">describedBy</text>
<polyline fill="none" stroke="#000000" points="133.5,-213.5 326.5,-213.5 "/>
<text text-anchor="middle" x="230" y="-198.3" font-family="Times,serif" font-size="14.00" fill="#000000">id</text>
<polyline fill="none" stroke="#000000" points="133.5,-190.5 326.5,-190.5 "/>
<text text-anchor="middle" x="230" y="-175.3" font-family="Times,serif" font-size="14.00" fill="#000000">treatment_outcome</text>
<polyline fill="none" stroke="#000000" points="133.5,-167.5 326.5,-167.5 "/>
<text text-anchor="middle" x="230" y="-152.3" font-family="Times,serif" font-size="14.00" fill="#000000">treatment_type</text>
<polyline fill="none" stroke="#000000" points="326.5,-144.5 326.5,-282.5 "/>
<text text-anchor="middle" x="337" y="-209.8" font-family="Times,serif" font-size="14.00" fill="#000000"> </text>
</g>
<!-- Identifier -->
<g id="node13" class="node">
<title>Identifier</title>
<path fill="none" stroke="#000000" d="M99,-.5C99,-.5 269,-.5 269,-.5 275,-.5 281,-6.5 281,-12.5 281,-12.5 281,-57.5 281,-57.5 281,-63.5 275,-69.5 269,-69.5 269,-69.5 99,-69.5 99,-69.5 93,-69.5 87,-63.5 87,-57.5 87,-57.5 87,-12.5 87,-12.5 87,-6.5 93,-.5 99,-.5"/>
<text text-anchor="middle" x="129" y="-31.3" font-family="Times,serif" font-size="14.00" fill="#000000">Identifier</text>
<polyline fill="none" stroke="#000000" points="171,-.5 171,-69.5 "/>
<text text-anchor="middle" x="181.5" y="-31.3" font-family="Times,serif" font-size="14.00" fill="#000000"> </text>
<polyline fill="none" stroke="#000000" points="192,-.5 192,-69.5 "/>
<text text-anchor="middle" x="226" y="-54.3" font-family="Times,serif" font-size="14.00" fill="#000000">system</text>
<polyline fill="none" stroke="#000000" points="192,-46.5 260,-46.5 "/>
<text text-anchor="middle" x="226" y="-31.3" font-family="Times,serif" font-size="14.00" fill="#000000">type</text>
<polyline fill="none" stroke="#000000" points="192,-23.5 260,-23.5 "/>
<text text-anchor="middle" x="226" y="-8.3" font-family="Times,serif" font-size="14.00" fill="#000000">value</text>
<polyline fill="none" stroke="#000000" points="260,-.5 260,-69.5 "/>
<text text-anchor="middle" x="270.5" y="-31.3" font-family="Times,serif" font-size="14.00" fill="#000000"> </text>
</g>
<!-- Treatment&#45;&gt;Identifier -->
<g id="edge5" class="edge">
<title>Treatment&#45;&gt;Identifier</title>
<path fill="none" stroke="#000000" d="M184,-144.4872C184,-122.8658 184,-99.5716 184,-80.051"/>
<polygon fill="#000000" stroke="#000000" points="187.5001,-79.9233 184,-69.9233 180.5001,-79.9233 187.5001,-79.9233"/>
<text text-anchor="middle" x="217.5" y="-91.8" font-family="Times,serif" font-size="14.00" fill="#000000">identifier</text>
</g>
<!-- Study -->
<g id="node2" class="node">
<title>Study</title>
<path fill="none" stroke="#000000" d="M954.5,-156C954.5,-156 1169.5,-156 1169.5,-156 1175.5,-156 1181.5,-162 1181.5,-168 1181.5,-168 1181.5,-259 1181.5,-259 1181.5,-265 1175.5,-271 1169.5,-271 1169.5,-271 954.5,-271 954.5,-271 948.5,-271 942.5,-265 942.5,-259 942.5,-259 942.5,-168 942.5,-168 942.5,-162 948.5,-156 954.5,-156"/>
<text text-anchor="middle" x="972" y="-209.8" font-family="Times,serif" font-size="14.00" fill="#000000">Study</text>
<polyline fill="none" stroke="#000000" points="1001.5,-156 1001.5,-271 "/>
<text text-anchor="middle" x="1012" y="-209.8" font-family="Times,serif" font-size="14.00" fill="#000000"> </text>
<polyline fill="none" stroke="#000000" points="1022.5,-156 1022.5,-271 "/>
<text text-anchor="middle" x="1091.5" y="-255.8" font-family="Times,serif" font-size="14.00" fill="#000000">dbgap_accession</text>
<polyline fill="none" stroke="#000000" points="1022.5,-248 1160.5,-248 "/>
<text text-anchor="middle" x="1091.5" y="-232.8" font-family="Times,serif" font-size="14.00" fill="#000000">embargo_date</text>
<polyline fill="none" stroke="#000000" points="1022.5,-225 1160.5,-225 "/>
<text text-anchor="middle" x="1091.5" y="-209.8" font-family="Times,serif" font-size="14.00" fill="#000000">label</text>
<polyline fill="none" stroke="#000000" points="1022.5,-202 1160.5,-202 "/>
<text text-anchor="middle" x="1091.5" y="-186.8" font-family="Times,serif" font-size="14.00" fill="#000000">system</text>
<polyline fill="none" stroke="#000000" points="1022.5,-179 1160.5,-179 "/>
<text text-anchor="middle" x="1091.5" y="-163.8" font-family="Times,serif" font-size="14.00" fill="#000000">value</text>
<polyline fill="none" stroke="#000000" points="1160.5,-156 1160.5,-271 "/>
<text text-anchor="middle" x="1171" y="-209.8" font-family="Times,serif" font-size="14.00" fill="#000000"> </text>
</g>
<!-- Diagnosis -->
<g id="node3" class="node">
<title>Diagnosis</title>
<path fill="none" stroke="#000000" d="M12,-392C12,-392 356,-392 356,-392 362,-392 368,-398 368,-404 368,-404 368,-610 368,-610 368,-616 362,-622 356,-622 356,-622 12,-622 12,-622 6,-622 0,-616 0,-610 0,-610 0,-404 0,-404 0,-398 6,-392 12,-392"/>
<text text-anchor="middle" x="43" y="-503.3" font-family="Times,serif" font-size="14.00" fill="#000000">Diagnosis</text>
<polyline fill="none" stroke="#000000" points="86,-392 86,-622 "/>
<text text-anchor="middle" x="96.5" y="-503.3" font-family="Times,serif" font-size="14.00" fill="#000000"> </text>
<polyline fill="none" stroke="#000000" points="107,-392 107,-622 "/>
<text text-anchor="middle" x="227" y="-606.8" font-family="Times,serif" font-size="14.00" fill="#000000">age_at_diagnosis</text>
<polyline fill="none" stroke="#000000" points="107,-599 347,-599 "/>
<text text-anchor="middle" x="227" y="-583.8" font-family="Times,serif" font-size="14.00" fill="#000000">describedBy</text>
<polyline fill="none" stroke="#000000" points="107,-576 347,-576 "/>
<text text-anchor="middle" x="227" y="-560.8" font-family="Times,serif" font-size="14.00" fill="#000000">grade</text>
<polyline fill="none" stroke="#000000" points="107,-553 347,-553 "/>
<text text-anchor="middle" x="227" y="-537.8" font-family="Times,serif" font-size="14.00" fill="#000000">harmonized_primary_diagnosis</text>
<polyline fill="none" stroke="#000000" points="107,-530 347,-530 "/>
<text text-anchor="middle" x="227" y="-514.8" font-family="Times,serif" font-size="14.00" fill="#000000">id</text>
<polyline fill="none" stroke="#000000" points="107,-507 347,-507 "/>
<text text-anchor="middle" x="227" y="-491.8" font-family="Times,serif" font-size="14.00" fill="#000000">morphology</text>
<polyline fill="none" stroke="#000000" points="107,-484 347,-484 "/>
<text text-anchor="middle" x="227" y="-468.8" font-family="Times,serif" font-size="14.00" fill="#000000">primary_diagnosis</text>
<polyline fill="none" stroke="#000000" points="107,-461 347,-461 "/>
<text text-anchor="middle" x="227" y="-445.8" font-family="Times,serif" font-size="14.00" fill="#000000">research_subject</text>
<polyline fill="none" stroke="#000000" points="107,-438 347,-438 "/>
<text text-anchor="middle" x="227" y="-422.8" font-family="Times,serif" font-size="14.00" fill="#000000">specimen</text>
<polyline fill="none" stroke="#000000" points="107,-415 347,-415 "/>
<text text-anchor="middle" x="227" y="-399.8" font-family="Times,serif" font-size="14.00" fill="#000000">stage</text>
<polyline fill="none" stroke="#000000" points="347,-392 347,-622 "/>
<text text-anchor="middle" x="357.5" y="-503.3" font-family="Times,serif" font-size="14.00" fill="#000000"> </text>
</g>
<!-- Diagnosis&#45;&gt;Treatment -->
<g id="edge2" class="edge">
<title>Diagnosis&#45;&gt;Treatment</title>
<path fill="none" stroke="#000000" d="M184,-391.8434C184,-358.6575 184,-323.2088 184,-292.7294"/>
<polygon fill="#000000" stroke="#000000" points="187.5001,-292.5938 184,-282.5938 180.5001,-292.5939 187.5001,-292.5938"/>
<text text-anchor="middle" x="220.5" y="-327.8" font-family="Times,serif" font-size="14.00" fill="#000000">treatment</text>
</g>
<!-- Patient -->
<g id="node4" class="node">
<title>Patient</title>
<path fill="none" stroke="#000000" d="M445,-121.5C445,-121.5 645,-121.5 645,-121.5 651,-121.5 657,-127.5 657,-133.5 657,-133.5 657,-293.5 657,-293.5 657,-299.5 651,-305.5 645,-305.5 645,-305.5 445,-305.5 445,-305.5 439,-305.5 433,-299.5 433,-293.5 433,-293.5 433,-133.5 433,-133.5 433,-127.5 439,-121.5 445,-121.5"/>
<text text-anchor="middle" x="467" y="-209.8" font-family="Times,serif" font-size="14.00" fill="#000000">Patient</text>
<polyline fill="none" stroke="#000000" points="501,-121.5 501,-305.5 "/>
<text text-anchor="middle" x="511.5" y="-209.8" font-family="Times,serif" font-size="14.00" fill="#000000"> </text>
<polyline fill="none" stroke="#000000" points="522,-121.5 522,-305.5 "/>
<text text-anchor="middle" x="579" y="-290.3" font-family="Times,serif" font-size="14.00" fill="#000000">days_to_birth</text>
<polyline fill="none" stroke="#000000" points="522,-282.5 636,-282.5 "/>
<text text-anchor="middle" x="579" y="-267.3" font-family="Times,serif" font-size="14.00" fill="#000000">describedBy</text>
<polyline fill="none" stroke="#000000" points="522,-259.5 636,-259.5 "/>
<text text-anchor="middle" x="579" y="-244.3" font-family="Times,serif" font-size="14.00" fill="#000000">ethnicity</text>
<polyline fill="none" stroke="#000000" points="522,-236.5 636,-236.5 "/>
<text text-anchor="middle" x="579" y="-221.3" font-family="Times,serif" font-size="14.00" fill="#000000">id</text>
<polyline fill="none" stroke="#000000" points="522,-213.5 636,-213.5 "/>
<text text-anchor="middle" x="579" y="-198.3" font-family="Times,serif" font-size="14.00" fill="#000000">label</text>
<polyline fill="none" stroke="#000000" points="522,-190.5 636,-190.5 "/>
<text text-anchor="middle" x="579" y="-175.3" font-family="Times,serif" font-size="14.00" fill="#000000">race</text>
<polyline fill="none" stroke="#000000" points="522,-167.5 636,-167.5 "/>
<text text-anchor="middle" x="579" y="-152.3" font-family="Times,serif" font-size="14.00" fill="#000000">sex</text>
<polyline fill="none" stroke="#000000" points="522,-144.5 636,-144.5 "/>
<text text-anchor="middle" x="579" y="-129.3" font-family="Times,serif" font-size="14.00" fill="#000000">taxon</text>
<polyline fill="none" stroke="#000000" points="636,-121.5 636,-305.5 "/>
<text text-anchor="middle" x="646.5" y="-209.8" font-family="Times,serif" font-size="14.00" fill="#000000"> </text>
</g>
<!-- ResearchSubject -->
<g id="node14" class="node">
<title>ResearchSubject</title>
<path fill="none" stroke="#000000" d="M570,-731.5C570,-731.5 926,-731.5 926,-731.5 932,-731.5 938,-737.5 938,-743.5 938,-743.5 938,-834.5 938,-834.5 938,-840.5 932,-846.5 926,-846.5 926,-846.5 570,-846.5 570,-846.5 564,-846.5 558,-840.5 558,-834.5 558,-834.5 558,-743.5 558,-743.5 558,-737.5 564,-731.5 570,-731.5"/>
<text text-anchor="middle" x="627" y="-785.3" font-family="Times,serif" font-size="14.00" fill="#000000">ResearchSubject</text>
<polyline fill="none" stroke="#000000" points="696,-731.5 696,-846.5 "/>
<text text-anchor="middle" x="706.5" y="-785.3" font-family="Times,serif" font-size="14.00" fill="#000000"> </text>
<polyline fill="none" stroke="#000000" points="717,-731.5 717,-846.5 "/>
<text text-anchor="middle" x="817" y="-831.3" font-family="Times,serif" font-size="14.00" fill="#000000">describedBy</text>
<polyline fill="none" stroke="#000000" points="717,-823.5 917,-823.5 "/>
<text text-anchor="middle" x="817" y="-808.3" font-family="Times,serif" font-size="14.00" fill="#000000">harmonized_disease_type</text>
<polyline fill="none" stroke="#000000" points="717,-800.5 917,-800.5 "/>
<text text-anchor="middle" x="817" y="-785.3" font-family="Times,serif" font-size="14.00" fill="#000000">id</text>
<polyline fill="none" stroke="#000000" points="717,-777.5 917,-777.5 "/>
<text text-anchor="middle" x="817" y="-762.3" font-family="Times,serif" font-size="14.00" fill="#000000">primary_disease_site</text>
<polyline fill="none" stroke="#000000" points="717,-754.5 917,-754.5 "/>
<text text-anchor="middle" x="817" y="-739.3" font-family="Times,serif" font-size="14.00" fill="#000000">primary_disease_type</text>
<polyline fill="none" stroke="#000000" points="917,-731.5 917,-846.5 "/>
<text text-anchor="middle" x="927.5" y="-785.3" font-family="Times,serif" font-size="14.00" fill="#000000"> </text>
</g>
<!-- Patient&#45;&gt;ResearchSubject -->
<g id="edge7" class="edge">
<title>Patient&#45;&gt;ResearchSubject</title>
<path fill="none" stroke="#000000" d="M442.7419,-305.826C430.6262,-321.639 420.0718,-338.8662 413,-357 388.778,-419.1107 375.4825,-601.8921 413,-657 430.8183,-683.1725 486.9895,-709.3006 548.371,-731.3213"/>
<polygon fill="#000000" stroke="#000000" points="547.2659,-734.6429 557.8607,-734.6796 549.6012,-728.0439 547.2659,-734.6429"/>
<text text-anchor="middle" x="490" y="-503.3" font-family="Times,serif" font-size="14.00" fill="#000000">research_subject_list</text>
</g>
<!-- CodeableConcept -->
<g id="node5" class="node">
<title>CodeableConcept</title>
<path fill="none" stroke="#000000" d="M1340,-771C1340,-771 1546,-771 1546,-771 1552,-771 1558,-777 1558,-783 1558,-783 1558,-795 1558,-795 1558,-801 1552,-807 1546,-807 1546,-807 1340,-807 1340,-807 1334,-807 1328,-801 1328,-795 1328,-795 1328,-783 1328,-783 1328,-777 1334,-771 1340,-771"/>
<text text-anchor="middle" x="1399.5" y="-785.3" font-family="Times,serif" font-size="14.00" fill="#000000">CodeableConcept</text>
<polyline fill="none" stroke="#000000" points="1471,-771 1471,-807 "/>
<text text-anchor="middle" x="1481.5" y="-785.3" font-family="Times,serif" font-size="14.00" fill="#000000"> </text>
<polyline fill="none" stroke="#000000" points="1492,-771 1492,-807 "/>
<text text-anchor="middle" x="1514.5" y="-785.3" font-family="Times,serif" font-size="14.00" fill="#000000">text</text>
<polyline fill="none" stroke="#000000" points="1537,-771 1537,-807 "/>
<text text-anchor="middle" x="1547.5" y="-785.3" font-family="Times,serif" font-size="14.00" fill="#000000"> </text>
</g>
<!-- Coding -->
<g id="node9" class="node">
<title>Coding</title>
<path fill="none" stroke="#000000" d="M1480.5,-461C1480.5,-461 1635.5,-461 1635.5,-461 1641.5,-461 1647.5,-467 1647.5,-473 1647.5,-473 1647.5,-541 1647.5,-541 1647.5,-547 1641.5,-553 1635.5,-553 1635.5,-553 1480.5,-553 1480.5,-553 1474.5,-553 1468.5,-547 1468.5,-541 1468.5,-541 1468.5,-473 1468.5,-473 1468.5,-467 1474.5,-461 1480.5,-461"/>
<text text-anchor="middle" x="1502.5" y="-503.3" font-family="Times,serif" font-size="14.00" fill="#000000">Coding</text>
<polyline fill="none" stroke="#000000" points="1536.5,-461 1536.5,-553 "/>
<text text-anchor="middle" x="1547" y="-503.3" font-family="Times,serif" font-size="14.00" fill="#000000"> </text>
<polyline fill="none" stroke="#000000" points="1557.5,-461 1557.5,-553 "/>
<text text-anchor="middle" x="1592" y="-537.8" font-family="Times,serif" font-size="14.00" fill="#000000">code</text>
<polyline fill="none" stroke="#000000" points="1557.5,-530 1626.5,-530 "/>
<text text-anchor="middle" x="1592" y="-514.8" font-family="Times,serif" font-size="14.00" fill="#000000">display</text>
<polyline fill="none" stroke="#000000" points="1557.5,-507 1626.5,-507 "/>
<text text-anchor="middle" x="1592" y="-491.8" font-family="Times,serif" font-size="14.00" fill="#000000">system</text>
<polyline fill="none" stroke="#000000" points="1557.5,-484 1626.5,-484 "/>
<text text-anchor="middle" x="1592" y="-468.8" font-family="Times,serif" font-size="14.00" fill="#000000">version</text>
<polyline fill="none" stroke="#000000" points="1626.5,-461 1626.5,-553 "/>
<text text-anchor="middle" x="1637" y="-503.3" font-family="Times,serif" font-size="14.00" fill="#000000"> </text>
</g>
<!-- CodeableConcept&#45;&gt;Coding -->
<g id="edge13" class="edge">
<title>CodeableConcept&#45;&gt;Coding</title>
<path fill="none" stroke="#000000" d="M1450.3687,-770.9306C1467.1788,-729.7094 1508.9327,-627.3215 1535.217,-562.8679"/>
<polygon fill="#000000" stroke="#000000" points="1538.6018,-563.8364 1539.1371,-553.2551 1532.1201,-561.1931 1538.6018,-563.8364"/>
<text text-anchor="middle" x="1511.5" y="-678.8" font-family="Times,serif" font-size="14.00" fill="#000000">coding</text>
</g>
<!-- Quantity -->
<g id="node6" class="node">
<title>Quantity</title>
<path fill="none" stroke="#000000" d="M1588.5,-771C1588.5,-771 1741.5,-771 1741.5,-771 1747.5,-771 1753.5,-777 1753.5,-783 1753.5,-783 1753.5,-795 1753.5,-795 1753.5,-801 1747.5,-807 1741.5,-807 1741.5,-807 1588.5,-807 1588.5,-807 1582.5,-807 1576.5,-801 1576.5,-795 1576.5,-795 1576.5,-783 1576.5,-783 1576.5,-777 1582.5,-771 1588.5,-771"/>
<text text-anchor="middle" x="1616.5" y="-785.3" font-family="Times,serif" font-size="14.00" fill="#000000">Quantity</text>
<polyline fill="none" stroke="#000000" points="1656.5,-771 1656.5,-807 "/>
<text text-anchor="middle" x="1667" y="-785.3" font-family="Times,serif" font-size="14.00" fill="#000000"> </text>
<polyline fill="none" stroke="#000000" points="1677.5,-771 1677.5,-807 "/>
<text text-anchor="middle" x="1705" y="-785.3" font-family="Times,serif" font-size="14.00" fill="#000000">value</text>
<polyline fill="none" stroke="#000000" points="1732.5,-771 1732.5,-807 "/>
<text text-anchor="middle" x="1743" y="-785.3" font-family="Times,serif" font-size="14.00" fill="#000000"> </text>
</g>
<!-- Quantity&#45;&gt;Coding -->
<g id="edge9" class="edge">
<title>Quantity&#45;&gt;Coding</title>
<path fill="none" stroke="#000000" d="M1634.8308,-770.9583C1609.2911,-753.7636 1574.4453,-725.2951 1559,-690 1541.5945,-650.2254 1542.4861,-600.7699 1547.1004,-563.3022"/>
<polygon fill="#000000" stroke="#000000" points="1550.6123,-563.4501 1548.4885,-553.0703 1543.6759,-562.509 1550.6123,-563.4501"/>
<text text-anchor="middle" x="1601" y="-678.8" font-family="Times,serif" font-size="14.00" fill="#000000">comparator</text>
</g>
<!-- Quantity&#45;&gt;Coding -->
<g id="edge11" class="edge">
<title>Quantity&#45;&gt;Coding</title>
<path fill="none" stroke="#000000" d="M1663.0721,-770.8288C1660.2934,-747.9894 1654.2187,-707.8045 1643,-675 1629.5612,-635.7036 1608.5246,-594.0315 1590.7422,-562.0213"/>
<polygon fill="#000000" stroke="#000000" points="1593.77,-560.2648 1585.822,-553.259 1587.6664,-563.6921 1593.77,-560.2648"/>
<text text-anchor="middle" x="1661.5" y="-678.8" font-family="Times,serif" font-size="14.00" fill="#000000">unit</text>
</g>
<!-- ExternalReference -->
<g id="node7" class="node">
<title>ExternalReference</title>
<path fill="none" stroke="#000000" d="M1760,-461C1760,-461 2042,-461 2042,-461 2048,-461 2054,-467 2054,-473 2054,-473 2054,-541 2054,-541 2054,-547 2048,-553 2042,-553 2042,-553 1760,-553 1760,-553 1754,-553 1748,-547 1748,-541 1748,-541 1748,-473 1748,-473 1748,-467 1754,-461 1760,-461"/>
<text text-anchor="middle" x="1823.5" y="-503.3" font-family="Times,serif" font-size="14.00" fill="#000000">ExternalReference</text>
<polyline fill="none" stroke="#000000" points="1899,-461 1899,-553 "/>
<text text-anchor="middle" x="1909.5" y="-503.3" font-family="Times,serif" font-size="14.00" fill="#000000"> </text>
<polyline fill="none" stroke="#000000" points="1920,-461 1920,-553 "/>
<text text-anchor="middle" x="1976.5" y="-537.8" font-family="Times,serif" font-size="14.00" fill="#000000">reference_url</text>
<polyline fill="none" stroke="#000000" points="1920,-530 2033,-530 "/>
<text text-anchor="middle" x="1976.5" y="-514.8" font-family="Times,serif" font-size="14.00" fill="#000000">term_id</text>
<polyline fill="none" stroke="#000000" points="1920,-507 2033,-507 "/>
<text text-anchor="middle" x="1976.5" y="-491.8" font-family="Times,serif" font-size="14.00" fill="#000000">term_label</text>
<polyline fill="none" stroke="#000000" points="1920,-484 2033,-484 "/>
<text text-anchor="middle" x="1976.5" y="-468.8" font-family="Times,serif" font-size="14.00" fill="#000000">version</text>
<polyline fill="none" stroke="#000000" points="2033,-461 2033,-553 "/>
<text text-anchor="middle" x="2043.5" y="-503.3" font-family="Times,serif" font-size="14.00" fill="#000000"> </text>
</g>
<!-- Specimen -->
<g id="node8" class="node">
<title>Specimen</title>
<path fill="none" stroke="#000000" d="M588,-357.5C588,-357.5 908,-357.5 908,-357.5 914,-357.5 920,-363.5 920,-369.5 920,-369.5 920,-644.5 920,-644.5 920,-650.5 914,-656.5 908,-656.5 908,-656.5 588,-656.5 588,-656.5 582,-656.5 576,-650.5 576,-644.5 576,-644.5 576,-369.5 576,-369.5 576,-363.5 582,-357.5 588,-357.5"/>
<text text-anchor="middle" x="619.5" y="-503.3" font-family="Times,serif" font-size="14.00" fill="#000000">Specimen</text>
<polyline fill="none" stroke="#000000" points="663,-357.5 663,-656.5 "/>
<text text-anchor="middle" x="673.5" y="-503.3" font-family="Times,serif" font-size="14.00" fill="#000000"> </text>
<polyline fill="none" stroke="#000000" points="684,-357.5 684,-656.5 "/>
<text text-anchor="middle" x="791.5" y="-641.3" font-family="Times,serif" font-size="14.00" fill="#000000">age_at_collection</text>
<polyline fill="none" stroke="#000000" points="684,-633.5 899,-633.5 "/>
<text text-anchor="middle" x="791.5" y="-618.3" font-family="Times,serif" font-size="14.00" fill="#000000">analyte_type</text>
<polyline fill="none" stroke="#000000" points="684,-610.5 899,-610.5 "/>
<text text-anchor="middle" x="791.5" y="-595.3" font-family="Times,serif" font-size="14.00" fill="#000000">anatomical_site</text>
<polyline fill="none" stroke="#000000" points="684,-587.5 899,-587.5 "/>
<text text-anchor="middle" x="791.5" y="-572.3" font-family="Times,serif" font-size="14.00" fill="#000000">cellular_composition</text>
<polyline fill="none" stroke="#000000" points="684,-564.5 899,-564.5 "/>
<text text-anchor="middle" x="791.5" y="-549.3" font-family="Times,serif" font-size="14.00" fill="#000000">derived_from_specimen</text>
<polyline fill="none" stroke="#000000" points="684,-541.5 899,-541.5 "/>
<text text-anchor="middle" x="791.5" y="-526.3" font-family="Times,serif" font-size="14.00" fill="#000000">describedBy</text>
<polyline fill="none" stroke="#000000" points="684,-518.5 899,-518.5 "/>
<text text-anchor="middle" x="791.5" y="-503.3" font-family="Times,serif" font-size="14.00" fill="#000000">general_tissue_morphology</text>
<polyline fill="none" stroke="#000000" points="684,-495.5 899,-495.5 "/>
<text text-anchor="middle" x="791.5" y="-480.3" font-family="Times,serif" font-size="14.00" fill="#000000">id</text>
<polyline fill="none" stroke="#000000" points="684,-472.5 899,-472.5 "/>
<text text-anchor="middle" x="791.5" y="-457.3" font-family="Times,serif" font-size="14.00" fill="#000000">matched_normal_flag</text>
<polyline fill="none" stroke="#000000" points="684,-449.5 899,-449.5 "/>
<text text-anchor="middle" x="791.5" y="-434.3" font-family="Times,serif" font-size="14.00" fill="#000000">qualification_status_flag</text>
<polyline fill="none" stroke="#000000" points="684,-426.5 899,-426.5 "/>
<text text-anchor="middle" x="791.5" y="-411.3" font-family="Times,serif" font-size="14.00" fill="#000000">source_material_type</text>
<polyline fill="none" stroke="#000000" points="684,-403.5 899,-403.5 "/>
<text text-anchor="middle" x="791.5" y="-388.3" font-family="Times,serif" font-size="14.00" fill="#000000">specific_tissue_morphology</text>
<polyline fill="none" stroke="#000000" points="684,-380.5 899,-380.5 "/>
<text text-anchor="middle" x="791.5" y="-365.3" font-family="Times,serif" font-size="14.00" fill="#000000">specimen_type</text>
<polyline fill="none" stroke="#000000" points="899,-357.5 899,-656.5 "/>
<text text-anchor="middle" x="909.5" y="-503.3" font-family="Times,serif" font-size="14.00" fill="#000000"> </text>
</g>
<!-- Specimen&#45;&gt;Patient -->
<g id="edge14" class="edge">
<title>Specimen&#45;&gt;Patient</title>
<path fill="none" stroke="#000000" d="M644.4186,-357.2407C634.3811,-342.7284 624.3708,-328.2553 614.7805,-314.3896"/>
<polygon fill="#000000" stroke="#000000" points="617.4341,-312.0732 608.867,-305.8397 611.6769,-316.0552 617.4341,-312.0732"/>
<text text-anchor="middle" x="707" y="-327.8" font-family="Times,serif" font-size="14.00" fill="#000000">derived_from_subject</text>
</g>
<!-- Project -->
<g id="node10" class="node">
<title>Project</title>
<path fill="none" stroke="#000000" d="M950,-415C950,-415 1174,-415 1174,-415 1180,-415 1186,-421 1186,-427 1186,-427 1186,-587 1186,-587 1186,-593 1180,-599 1174,-599 1174,-599 950,-599 950,-599 944,-599 938,-593 938,-587 938,-587 938,-427 938,-427 938,-421 944,-415 950,-415"/>
<text text-anchor="middle" x="972" y="-503.3" font-family="Times,serif" font-size="14.00" fill="#000000">Project</text>
<polyline fill="none" stroke="#000000" points="1006,-415 1006,-599 "/>
<text text-anchor="middle" x="1016.5" y="-503.3" font-family="Times,serif" font-size="14.00" fill="#000000"> </text>
<polyline fill="none" stroke="#000000" points="1027,-415 1027,-599 "/>
<text text-anchor="middle" x="1096" y="-583.8" font-family="Times,serif" font-size="14.00" fill="#000000">dbgap_accession</text>
<polyline fill="none" stroke="#000000" points="1027,-576 1165,-576 "/>
<text text-anchor="middle" x="1096" y="-560.8" font-family="Times,serif" font-size="14.00" fill="#000000">dct_title</text>
<polyline fill="none" stroke="#000000" points="1027,-553 1165,-553 "/>
<text text-anchor="middle" x="1096" y="-537.8" font-family="Times,serif" font-size="14.00" fill="#000000">describedBy</text>
<polyline fill="none" stroke="#000000" points="1027,-530 1165,-530 "/>
<text text-anchor="middle" x="1096" y="-514.8" font-family="Times,serif" font-size="14.00" fill="#000000">disease_site</text>
<polyline fill="none" stroke="#000000" points="1027,-507 1165,-507 "/>
<text text-anchor="middle" x="1096" y="-491.8" font-family="Times,serif" font-size="14.00" fill="#000000">disease_type</text>
<polyline fill="none" stroke="#000000" points="1027,-484 1165,-484 "/>
<text text-anchor="middle" x="1096" y="-468.8" font-family="Times,serif" font-size="14.00" fill="#000000">id</text>
<polyline fill="none" stroke="#000000" points="1027,-461 1165,-461 "/>
<text text-anchor="middle" x="1096" y="-445.8" font-family="Times,serif" font-size="14.00" fill="#000000">label</text>
<polyline fill="none" stroke="#000000" points="1027,-438 1165,-438 "/>
<text text-anchor="middle" x="1096" y="-422.8" font-family="Times,serif" font-size="14.00" fill="#000000">program</text>
<polyline fill="none" stroke="#000000" points="1165,-415 1165,-599 "/>
<text text-anchor="middle" x="1175.5" y="-503.3" font-family="Times,serif" font-size="14.00" fill="#000000"> </text>
</g>
<!-- Project&#45;&gt;Study -->
<g id="edge8" class="edge">
<title>Project&#45;&gt;Study</title>
<path fill="none" stroke="#000000" d="M1062,-414.94C1062,-371.6378 1062,-320.9219 1062,-281.2112"/>
<polygon fill="#000000" stroke="#000000" points="1065.5001,-281.1031 1062,-271.1032 1058.5001,-281.1032 1065.5001,-281.1031"/>
<text text-anchor="middle" x="1088" y="-327.8" font-family="Times,serif" font-size="14.00" fill="#000000">studies</text>
</g>
<!-- File -->
<g id="node11" class="node">
<title>File</title>
<path fill="none" stroke="#000000" d="M1216,-392C1216,-392 1438,-392 1438,-392 1444,-392 1450,-398 1450,-404 1450,-404 1450,-610 1450,-610 1450,-616 1444,-622 1438,-622 1438,-622 1216,-622 1216,-622 1210,-622 1204,-616 1204,-610 1204,-610 1204,-404 1204,-404 1204,-398 1210,-392 1216,-392"/>
<text text-anchor="middle" x="1226" y="-503.3" font-family="Times,serif" font-size="14.00" fill="#000000">File</text>
<polyline fill="none" stroke="#000000" points="1248,-392 1248,-622 "/>
<text text-anchor="middle" x="1258.5" y="-503.3" font-family="Times,serif" font-size="14.00" fill="#000000"> </text>
<polyline fill="none" stroke="#000000" points="1269,-392 1269,-622 "/>
<text text-anchor="middle" x="1349" y="-606.8" font-family="Times,serif" font-size="14.00" fill="#000000">byte_size</text>
<polyline fill="none" stroke="#000000" points="1269,-599 1429,-599 "/>
<text text-anchor="middle" x="1349" y="-583.8" font-family="Times,serif" font-size="14.00" fill="#000000">checksum</text>
<polyline fill="none" stroke="#000000" points="1269,-576 1429,-576 "/>
<text text-anchor="middle" x="1349" y="-560.8" font-family="Times,serif" font-size="14.00" fill="#000000">data_category</text>
<polyline fill="none" stroke="#000000" points="1269,-553 1429,-553 "/>
<text text-anchor="middle" x="1349" y="-537.8" font-family="Times,serif" font-size="14.00" fill="#000000">data_type</text>
<polyline fill="none" stroke="#000000" points="1269,-530 1429,-530 "/>
<text text-anchor="middle" x="1349" y="-514.8" font-family="Times,serif" font-size="14.00" fill="#000000">describedBy</text>
<polyline fill="none" stroke="#000000" points="1269,-507 1429,-507 "/>
<text text-anchor="middle" x="1349" y="-491.8" font-family="Times,serif" font-size="14.00" fill="#000000">file_format</text>
<polyline fill="none" stroke="#000000" points="1269,-484 1429,-484 "/>
<text text-anchor="middle" x="1349" y="-468.8" font-family="Times,serif" font-size="14.00" fill="#000000">id</text>
<polyline fill="none" stroke="#000000" points="1269,-461 1429,-461 "/>
<text text-anchor="middle" x="1349" y="-445.8" font-family="Times,serif" font-size="14.00" fill="#000000">label</text>
<polyline fill="none" stroke="#000000" points="1269,-438 1429,-438 "/>
<text text-anchor="middle" x="1349" y="-422.8" font-family="Times,serif" font-size="14.00" fill="#000000">media_type</text>
<polyline fill="none" stroke="#000000" points="1269,-415 1429,-415 "/>
<text text-anchor="middle" x="1349" y="-399.8" font-family="Times,serif" font-size="14.00" fill="#000000">reference_assembly</text>
<polyline fill="none" stroke="#000000" points="1429,-392 1429,-622 "/>
<text text-anchor="middle" x="1439.5" y="-503.3" font-family="Times,serif" font-size="14.00" fill="#000000"> </text>
</g>
<!-- Dataset -->
<g id="node12" class="node">
<title>Dataset</title>
<path fill="none" stroke="#000000" d="M1784,-708.5C1784,-708.5 2012,-708.5 2012,-708.5 2018,-708.5 2024,-714.5 2024,-720.5 2024,-720.5 2024,-857.5 2024,-857.5 2024,-863.5 2018,-869.5 2012,-869.5 2012,-869.5 1784,-869.5 1784,-869.5 1778,-869.5 1772,-863.5 1772,-857.5 1772,-857.5 1772,-720.5 1772,-720.5 1772,-714.5 1778,-708.5 1784,-708.5"/>
<text text-anchor="middle" x="1808" y="-785.3" font-family="Times,serif" font-size="14.00" fill="#000000">Dataset</text>
<polyline fill="none" stroke="#000000" points="1844,-708.5 1844,-869.5 "/>
<text text-anchor="middle" x="1854.5" y="-785.3" font-family="Times,serif" font-size="14.00" fill="#000000"> </text>
<polyline fill="none" stroke="#000000" points="1865,-708.5 1865,-869.5 "/>
<text text-anchor="middle" x="1934" y="-854.3" font-family="Times,serif" font-size="14.00" fill="#000000">conformsTo</text>
<polyline fill="none" stroke="#000000" points="1865,-846.5 2003,-846.5 "/>
<text text-anchor="middle" x="1934" y="-831.3" font-family="Times,serif" font-size="14.00" fill="#000000">dct_title</text>
<polyline fill="none" stroke="#000000" points="1865,-823.5 2003,-823.5 "/>
<text text-anchor="middle" x="1934" y="-808.3" font-family="Times,serif" font-size="14.00" fill="#000000">describedBy</text>
<polyline fill="none" stroke="#000000" points="1865,-800.5 2003,-800.5 "/>
<text text-anchor="middle" x="1934" y="-785.3" font-family="Times,serif" font-size="14.00" fill="#000000">id</text>
<polyline fill="none" stroke="#000000" points="1865,-777.5 2003,-777.5 "/>
<text text-anchor="middle" x="1934" y="-762.3" font-family="Times,serif" font-size="14.00" fill="#000000">label</text>
<polyline fill="none" stroke="#000000" points="1865,-754.5 2003,-754.5 "/>
<text text-anchor="middle" x="1934" y="-739.3" font-family="Times,serif" font-size="14.00" fill="#000000">license</text>
<polyline fill="none" stroke="#000000" points="1865,-731.5 2003,-731.5 "/>
<text text-anchor="middle" x="1934" y="-716.3" font-family="Times,serif" font-size="14.00" fill="#000000">wasGeneratedBy</text>
<polyline fill="none" stroke="#000000" points="2003,-708.5 2003,-869.5 "/>
<text text-anchor="middle" x="2013.5" y="-785.3" font-family="Times,serif" font-size="14.00" fill="#000000"> </text>
</g>
<!-- Dataset&#45;&gt;ExternalReference -->
<g id="edge3" class="edge">
<title>Dataset&#45;&gt;ExternalReference</title>
<path fill="none" stroke="#000000" d="M1815.237,-708.3095C1811.3875,-697.7064 1810.1688,-686.5069 1813,-675 1822.9231,-634.6701 1844.4328,-593.2956 1863.7015,-561.6976"/>
<polygon fill="#000000" stroke="#000000" points="1866.7666,-563.3961 1869.0653,-553.0536 1860.8187,-559.7052 1866.7666,-563.3961"/>
<text text-anchor="middle" x="1887" y="-678.8" font-family="Times,serif" font-size="14.00" fill="#000000">data_use_restriction</text>
</g>
<!-- Dataset&#45;&gt;ExternalReference -->
<g id="edge4" class="edge">
<title>Dataset&#45;&gt;ExternalReference</title>
<path fill="none" stroke="#000000" d="M1954.2337,-708.3431C1956.8993,-702.3055 1959.2058,-696.1614 1961,-690 1973.5818,-646.7934 1956.3485,-598.4342 1937.1731,-562.2836"/>
<polygon fill="#000000" stroke="#000000" points="1940.1564,-560.4449 1932.2732,-553.3664 1934.0216,-563.816 1940.1564,-560.4449"/>
<text text-anchor="middle" x="2034.5" y="-678.8" font-family="Times,serif" font-size="14.00" fill="#000000">data_use_limitation</text>
</g>
<!-- ResearchSubject&#45;&gt;Diagnosis -->
<g id="edge10" class="edge">
<title>ResearchSubject&#45;&gt;Diagnosis</title>
<path fill="none" stroke="#000000" d="M557.9168,-757.9191C463.6699,-739.9326 361.6662,-715.7906 322,-690 297.8281,-674.2837 276.2842,-652.804 257.817,-630.0824"/>
<polygon fill="#000000" stroke="#000000" points="260.3675,-627.6654 251.414,-622.0011 254.881,-632.0126 260.3675,-627.6654"/>
<text text-anchor="middle" x="356" y="-678.8" font-family="Times,serif" font-size="14.00" fill="#000000">diagnosis</text>
</g>
<!-- ResearchSubject&#45;&gt;Specimen -->
<g id="edge12" class="edge">
<title>ResearchSubject&#45;&gt;Specimen</title>
<path fill="none" stroke="#000000" d="M748,-731.2526C748,-712.1628 748,-689.9009 748,-666.957"/>
<polygon fill="#000000" stroke="#000000" points="751.5001,-666.7343 748,-656.7344 744.5001,-666.7344 751.5001,-666.7343"/>
<text text-anchor="middle" x="782.5" y="-678.8" font-family="Times,serif" font-size="14.00" fill="#000000">specimen</text>
</g>
<!-- ResearchSubject&#45;&gt;Project -->
<g id="edge1" class="edge">
<title>ResearchSubject&#45;&gt;Project</title>
<path fill="none" stroke="#000000" d="M834.7423,-731.4848C865.6276,-709.5414 899.9325,-683.4217 929,-657 946.014,-641.5346 963.1038,-624.0622 979.0972,-606.6484"/>
<polygon fill="#000000" stroke="#000000" points="981.7383,-608.9463 985.881,-599.1949 976.5615,-604.2346 981.7383,-608.9463"/>
<text text-anchor="middle" x="974.5" y="-678.8" font-family="Times,serif" font-size="14.00" fill="#000000">associated_project</text>
</g>
<!-- ResearchSubject&#45;&gt;File -->
<g id="edge6" class="edge">
<title>ResearchSubject&#45;&gt;File</title>
<path fill="none" stroke="#000000" d="M938.1852,-757.5714C1021.5903,-737.7527 1117.8428,-706.2532 1195,-657 1207.5925,-648.9616 1219.6838,-639.3827 1231.0862,-629.009"/>
<polygon fill="#000000" stroke="#000000" points="1233.5722,-631.4761 1238.4782,-622.0855 1228.787,-626.3671 1233.5722,-631.4761"/>
<text text-anchor="middle" x="1174.5" y="-678.8" font-family="Times,serif" font-size="14.00" fill="#000000">file</text>
</g>
</g>
</svg>
