<?xml version="1.0" encoding="UTF-8" standalone="no"?>
<!DOCTYPE svg PUBLIC "-//W3C//DTD SVG 1.1//EN"
 "http://www.w3.org/Graphics/SVG/1.1/DTD/svg11.dtd">
<!-- Generated by graphviz version 2.48.0 (20210717.1556)
 -->
<!-- Title: Perl Pages: 1 -->
<svg width="1864pt" height="878pt"
 viewBox="0.00 0.00 1863.50 878.00" xmlns="http://www.w3.org/2000/svg" xmlns:xlink="http://www.w3.org/1999/xlink">
<g id="graph0" class="graph" transform="scale(1 1) rotate(0) translate(4 874)">
<title>Perl</title>
<polygon fill="white" stroke="transparent" points="-4,4 -4,-874 1859.5,-874 1859.5,4 -4,4"/>
<!-- CodeableConcept -->
<g id="node1" class="node">
<title>CodeableConcept</title>
<path fill="none" stroke="black" d="M12,-771C12,-771 181,-771 181,-771 187,-771 193,-777 193,-783 193,-783 193,-795 193,-795 193,-801 187,-807 181,-807 181,-807 12,-807 12,-807 6,-807 0,-801 0,-795 0,-795 0,-783 0,-783 0,-777 6,-771 12,-771"/>
<text text-anchor="middle" x="58" y="-785.3" font-family="Times,serif" font-size="14.00">CodeableConcept</text>
<polyline fill="none" stroke="black" points="116,-771 116,-807 "/>
<text text-anchor="middle" x="126" y="-785.3" font-family="Times,serif" font-size="14.00"> </text>
<polyline fill="none" stroke="black" points="136,-771 136,-807 "/>
<text text-anchor="middle" x="154.5" y="-785.3" font-family="Times,serif" font-size="14.00">text</text>
<polyline fill="none" stroke="black" points="173,-771 173,-807 "/>
<text text-anchor="middle" x="183" y="-785.3" font-family="Times,serif" font-size="14.00"> </text>
</g>
<!-- Coding -->
<g id="node3" class="node">
<title>Coding</title>
<path fill="none" stroke="black" d="M176.5,-461C176.5,-461 308.5,-461 308.5,-461 314.5,-461 320.5,-467 320.5,-473 320.5,-473 320.5,-541 320.5,-541 320.5,-547 314.5,-553 308.5,-553 308.5,-553 176.5,-553 176.5,-553 170.5,-553 164.5,-547 164.5,-541 164.5,-541 164.5,-473 164.5,-473 164.5,-467 170.5,-461 176.5,-461"/>
<text text-anchor="middle" x="193.5" y="-503.3" font-family="Times,serif" font-size="14.00">Coding</text>
<polyline fill="none" stroke="black" points="222.5,-461 222.5,-553 "/>
<text text-anchor="middle" x="232.5" y="-503.3" font-family="Times,serif" font-size="14.00"> </text>
<polyline fill="none" stroke="black" points="242.5,-461 242.5,-553 "/>
<text text-anchor="middle" x="271.5" y="-537.8" font-family="Times,serif" font-size="14.00">code</text>
<polyline fill="none" stroke="black" points="242.5,-530 300.5,-530 "/>
<text text-anchor="middle" x="271.5" y="-514.8" font-family="Times,serif" font-size="14.00">display</text>
<polyline fill="none" stroke="black" points="242.5,-507 300.5,-507 "/>
<text text-anchor="middle" x="271.5" y="-491.8" font-family="Times,serif" font-size="14.00">system</text>
<polyline fill="none" stroke="black" points="242.5,-484 300.5,-484 "/>
<text text-anchor="middle" x="271.5" y="-468.8" font-family="Times,serif" font-size="14.00">version</text>
<polyline fill="none" stroke="black" points="300.5,-461 300.5,-553 "/>
<text text-anchor="middle" x="310.5" y="-503.3" font-family="Times,serif" font-size="14.00"> </text>
</g>
<!-- CodeableConcept&#45;&gt;Coding -->
<g id="edge12" class="edge">
<title>CodeableConcept&#45;&gt;Coding</title>
<path fill="none" stroke="black" d="M105.41,-770.91C126.57,-730.34 180.54,-626.82 214.11,-562.45"/>
<polygon fill="black" stroke="black" points="217.39,-563.73 218.91,-553.25 211.18,-560.49 217.39,-563.73"/>
<text text-anchor="middle" x="172" y="-678.8" font-family="Times,serif" font-size="14.00">coding</text>
</g>
<!-- Study -->
<g id="node2" class="node">
<title>Study</title>
<path fill="none" stroke="black" d="M354.5,-156C354.5,-156 530.5,-156 530.5,-156 536.5,-156 542.5,-162 542.5,-168 542.5,-168 542.5,-259 542.5,-259 542.5,-265 536.5,-271 530.5,-271 530.5,-271 354.5,-271 354.5,-271 348.5,-271 342.5,-265 342.5,-259 342.5,-259 342.5,-168 342.5,-168 342.5,-162 348.5,-156 354.5,-156"/>
<text text-anchor="middle" x="367" y="-209.8" font-family="Times,serif" font-size="14.00">Study</text>
<polyline fill="none" stroke="black" points="391.5,-156 391.5,-271 "/>
<text text-anchor="middle" x="401.5" y="-209.8" font-family="Times,serif" font-size="14.00"> </text>
<polyline fill="none" stroke="black" points="411.5,-156 411.5,-271 "/>
<text text-anchor="middle" x="467" y="-255.8" font-family="Times,serif" font-size="14.00">dbgap_accession</text>
<polyline fill="none" stroke="black" points="411.5,-248 522.5,-248 "/>
<text text-anchor="middle" x="467" y="-232.8" font-family="Times,serif" font-size="14.00">embargo_date</text>
<polyline fill="none" stroke="black" points="411.5,-225 522.5,-225 "/>
<text text-anchor="middle" x="467" y="-209.8" font-family="Times,serif" font-size="14.00">label</text>
<polyline fill="none" stroke="black" points="411.5,-202 522.5,-202 "/>
<text text-anchor="middle" x="467" y="-186.8" font-family="Times,serif" font-size="14.00">system</text>
<polyline fill="none" stroke="black" points="411.5,-179 522.5,-179 "/>
<text text-anchor="middle" x="467" y="-163.8" font-family="Times,serif" font-size="14.00">value</text>
<polyline fill="none" stroke="black" points="522.5,-156 522.5,-271 "/>
<text text-anchor="middle" x="532.5" y="-209.8" font-family="Times,serif" font-size="14.00"> </text>
</g>
<!-- Patient -->
<g id="node4" class="node">
<title>Patient</title>
<path fill="none" stroke="black" d="M734.5,-121.5C734.5,-121.5 898.5,-121.5 898.5,-121.5 904.5,-121.5 910.5,-127.5 910.5,-133.5 910.5,-133.5 910.5,-293.5 910.5,-293.5 910.5,-299.5 904.5,-305.5 898.5,-305.5 898.5,-305.5 734.5,-305.5 734.5,-305.5 728.5,-305.5 722.5,-299.5 722.5,-293.5 722.5,-293.5 722.5,-133.5 722.5,-133.5 722.5,-127.5 728.5,-121.5 734.5,-121.5"/>
<text text-anchor="middle" x="750" y="-209.8" font-family="Times,serif" font-size="14.00">Patient</text>
<polyline fill="none" stroke="black" points="777.5,-121.5 777.5,-305.5 "/>
<text text-anchor="middle" x="787.5" y="-209.8" font-family="Times,serif" font-size="14.00"> </text>
<polyline fill="none" stroke="black" points="797.5,-121.5 797.5,-305.5 "/>
<text text-anchor="middle" x="844" y="-290.3" font-family="Times,serif" font-size="14.00">days_to_birth</text>
<polyline fill="none" stroke="black" points="797.5,-282.5 890.5,-282.5 "/>
<text text-anchor="middle" x="844" y="-267.3" font-family="Times,serif" font-size="14.00">describedBy</text>
<polyline fill="none" stroke="black" points="797.5,-259.5 890.5,-259.5 "/>
<text text-anchor="middle" x="844" y="-244.3" font-family="Times,serif" font-size="14.00">ethnicity</text>
<polyline fill="none" stroke="black" points="797.5,-236.5 890.5,-236.5 "/>
<text text-anchor="middle" x="844" y="-221.3" font-family="Times,serif" font-size="14.00">id</text>
<polyline fill="none" stroke="black" points="797.5,-213.5 890.5,-213.5 "/>
<text text-anchor="middle" x="844" y="-198.3" font-family="Times,serif" font-size="14.00">label</text>
<polyline fill="none" stroke="black" points="797.5,-190.5 890.5,-190.5 "/>
<text text-anchor="middle" x="844" y="-175.3" font-family="Times,serif" font-size="14.00">race</text>
<polyline fill="none" stroke="black" points="797.5,-167.5 890.5,-167.5 "/>
<text text-anchor="middle" x="844" y="-152.3" font-family="Times,serif" font-size="14.00">sex</text>
<polyline fill="none" stroke="black" points="797.5,-144.5 890.5,-144.5 "/>
<text text-anchor="middle" x="844" y="-129.3" font-family="Times,serif" font-size="14.00">taxon</text>
<polyline fill="none" stroke="black" points="890.5,-121.5 890.5,-305.5 "/>
<text text-anchor="middle" x="900.5" y="-209.8" font-family="Times,serif" font-size="14.00"> </text>
</g>
<!-- ResearchSubject -->
<g id="node6" class="node">
<title>ResearchSubject</title>
<path fill="none" stroke="black" d="M743,-731.5C743,-731.5 1030,-731.5 1030,-731.5 1036,-731.5 1042,-737.5 1042,-743.5 1042,-743.5 1042,-834.5 1042,-834.5 1042,-840.5 1036,-846.5 1030,-846.5 1030,-846.5 743,-846.5 743,-846.5 737,-846.5 731,-840.5 731,-834.5 731,-834.5 731,-743.5 731,-743.5 731,-737.5 737,-731.5 743,-731.5"/>
<text text-anchor="middle" x="786" y="-785.3" font-family="Times,serif" font-size="14.00">ResearchSubject</text>
<polyline fill="none" stroke="black" points="841,-731.5 841,-846.5 "/>
<text text-anchor="middle" x="851" y="-785.3" font-family="Times,serif" font-size="14.00"> </text>
<polyline fill="none" stroke="black" points="861,-731.5 861,-846.5 "/>
<text text-anchor="middle" x="941.5" y="-831.3" font-family="Times,serif" font-size="14.00">describedBy</text>
<polyline fill="none" stroke="black" points="861,-823.5 1022,-823.5 "/>
<text text-anchor="middle" x="941.5" y="-808.3" font-family="Times,serif" font-size="14.00">harmonized_disease_type</text>
<polyline fill="none" stroke="black" points="861,-800.5 1022,-800.5 "/>
<text text-anchor="middle" x="941.5" y="-785.3" font-family="Times,serif" font-size="14.00">id</text>
<polyline fill="none" stroke="black" points="861,-777.5 1022,-777.5 "/>
<text text-anchor="middle" x="941.5" y="-762.3" font-family="Times,serif" font-size="14.00">primary_disease_site</text>
<polyline fill="none" stroke="black" points="861,-754.5 1022,-754.5 "/>
<text text-anchor="middle" x="941.5" y="-739.3" font-family="Times,serif" font-size="14.00">primary_disease_type</text>
<polyline fill="none" stroke="black" points="1022,-731.5 1022,-846.5 "/>
<text text-anchor="middle" x="1032" y="-785.3" font-family="Times,serif" font-size="14.00"> </text>
</g>
<!-- Patient&#45;&gt;ResearchSubject -->
<g id="edge1" class="edge">
<title>Patient&#45;&gt;ResearchSubject</title>
<path fill="none" stroke="black" d="M866.76,-305.65C868.98,-311.75 870.93,-317.9 872.5,-324 891.25,-396.97 890.08,-610.85 888.08,-720.9"/>
<polygon fill="black" stroke="black" points="884.58,-721.15 887.89,-731.21 891.58,-721.28 884.58,-721.15"/>
<text text-anchor="middle" x="948.5" y="-503.3" font-family="Times,serif" font-size="14.00">research_subject_list</text>
</g>
<!-- Project -->
<g id="node5" class="node">
<title>Project</title>
<path fill="none" stroke="black" d="M351,-415C351,-415 534,-415 534,-415 540,-415 546,-421 546,-427 546,-427 546,-587 546,-587 546,-593 540,-599 534,-599 534,-599 351,-599 351,-599 345,-599 339,-593 339,-587 339,-587 339,-427 339,-427 339,-421 345,-415 351,-415"/>
<text text-anchor="middle" x="367" y="-503.3" font-family="Times,serif" font-size="14.00">Project</text>
<polyline fill="none" stroke="black" points="395,-415 395,-599 "/>
<text text-anchor="middle" x="405" y="-503.3" font-family="Times,serif" font-size="14.00"> </text>
<polyline fill="none" stroke="black" points="415,-415 415,-599 "/>
<text text-anchor="middle" x="470.5" y="-583.8" font-family="Times,serif" font-size="14.00">dbgap_accession</text>
<polyline fill="none" stroke="black" points="415,-576 526,-576 "/>
<text text-anchor="middle" x="470.5" y="-560.8" font-family="Times,serif" font-size="14.00">dct:title</text>
<polyline fill="none" stroke="black" points="415,-553 526,-553 "/>
<text text-anchor="middle" x="470.5" y="-537.8" font-family="Times,serif" font-size="14.00">describedBy</text>
<polyline fill="none" stroke="black" points="415,-530 526,-530 "/>
<text text-anchor="middle" x="470.5" y="-514.8" font-family="Times,serif" font-size="14.00">disease_site</text>
<polyline fill="none" stroke="black" points="415,-507 526,-507 "/>
<text text-anchor="middle" x="470.5" y="-491.8" font-family="Times,serif" font-size="14.00">disease_type</text>
<polyline fill="none" stroke="black" points="415,-484 526,-484 "/>
<text text-anchor="middle" x="470.5" y="-468.8" font-family="Times,serif" font-size="14.00">id</text>
<polyline fill="none" stroke="black" points="415,-461 526,-461 "/>
<text text-anchor="middle" x="470.5" y="-445.8" font-family="Times,serif" font-size="14.00">label</text>
<polyline fill="none" stroke="black" points="415,-438 526,-438 "/>
<text text-anchor="middle" x="470.5" y="-422.8" font-family="Times,serif" font-size="14.00">program</text>
<polyline fill="none" stroke="black" points="526,-415 526,-599 "/>
<text text-anchor="middle" x="536" y="-503.3" font-family="Times,serif" font-size="14.00"> </text>
</g>
<!-- Project&#45;&gt;Study -->
<g id="edge11" class="edge">
<title>Project&#45;&gt;Study</title>
<path fill="none" stroke="black" d="M442.5,-414.97C442.5,-371.78 442.5,-321.11 442.5,-281.51"/>
<polygon fill="black" stroke="black" points="446,-281.43 442.5,-271.43 439,-281.43 446,-281.43"/>
<text text-anchor="middle" x="462" y="-327.8" font-family="Times,serif" font-size="14.00">studies</text>
</g>
<!-- ResearchSubject&#45;&gt;Project -->
<g id="edge10" class="edge">
<title>ResearchSubject&#45;&gt;Project</title>
<path fill="none" stroke="black" d="M730.82,-745.99C672.15,-725.33 607.18,-696.24 555.5,-657 537.06,-643 520.13,-625.24 505.29,-606.9"/>
<polygon fill="black" stroke="black" points="508,-604.69 499.06,-599.01 502.51,-609.02 508,-604.69"/>
<text text-anchor="middle" x="656.5" y="-678.8" font-family="Times,serif" font-size="14.00">associated_project</text>
</g>
<!-- Diagnosis -->
<g id="node9" class="node">
<title>Diagnosis</title>
<path fill="none" stroke="black" d="M1258.5,-392C1258.5,-392 1540.5,-392 1540.5,-392 1546.5,-392 1552.5,-398 1552.5,-404 1552.5,-404 1552.5,-610 1552.5,-610 1552.5,-616 1546.5,-622 1540.5,-622 1540.5,-622 1258.5,-622 1258.5,-622 1252.5,-622 1246.5,-616 1246.5,-610 1246.5,-610 1246.5,-404 1246.5,-404 1246.5,-398 1252.5,-392 1258.5,-392"/>
<text text-anchor="middle" x="1282.5" y="-503.3" font-family="Times,serif" font-size="14.00">Diagnosis</text>
<polyline fill="none" stroke="black" points="1318.5,-392 1318.5,-622 "/>
<text text-anchor="middle" x="1328.5" y="-503.3" font-family="Times,serif" font-size="14.00"> </text>
<polyline fill="none" stroke="black" points="1338.5,-392 1338.5,-622 "/>
<text text-anchor="middle" x="1435.5" y="-606.8" font-family="Times,serif" font-size="14.00">age_at_diagnosis</text>
<polyline fill="none" stroke="black" points="1338.5,-599 1532.5,-599 "/>
<text text-anchor="middle" x="1435.5" y="-583.8" font-family="Times,serif" font-size="14.00">describedBy</text>
<polyline fill="none" stroke="black" points="1338.5,-576 1532.5,-576 "/>
<text text-anchor="middle" x="1435.5" y="-560.8" font-family="Times,serif" font-size="14.00">grade</text>
<polyline fill="none" stroke="black" points="1338.5,-553 1532.5,-553 "/>
<text text-anchor="middle" x="1435.5" y="-537.8" font-family="Times,serif" font-size="14.00">harmonized_primary_diagnosis</text>
<polyline fill="none" stroke="black" points="1338.5,-530 1532.5,-530 "/>
<text text-anchor="middle" x="1435.5" y="-514.8" font-family="Times,serif" font-size="14.00">id</text>
<polyline fill="none" stroke="black" points="1338.5,-507 1532.5,-507 "/>
<text text-anchor="middle" x="1435.5" y="-491.8" font-family="Times,serif" font-size="14.00">morphology</text>
<polyline fill="none" stroke="black" points="1338.5,-484 1532.5,-484 "/>
<text text-anchor="middle" x="1435.5" y="-468.8" font-family="Times,serif" font-size="14.00">primary_diagnosis</text>
<polyline fill="none" stroke="black" points="1338.5,-461 1532.5,-461 "/>
<text text-anchor="middle" x="1435.5" y="-445.8" font-family="Times,serif" font-size="14.00">research_subject</text>
<polyline fill="none" stroke="black" points="1338.5,-438 1532.5,-438 "/>
<text text-anchor="middle" x="1435.5" y="-422.8" font-family="Times,serif" font-size="14.00">specimen</text>
<polyline fill="none" stroke="black" points="1338.5,-415 1532.5,-415 "/>
<text text-anchor="middle" x="1435.5" y="-399.8" font-family="Times,serif" font-size="14.00">stage</text>
<polyline fill="none" stroke="black" points="1532.5,-392 1532.5,-622 "/>
<text text-anchor="middle" x="1542.5" y="-503.3" font-family="Times,serif" font-size="14.00"> </text>
</g>
<!-- ResearchSubject&#45;&gt;Diagnosis -->
<g id="edge13" class="edge">
<title>ResearchSubject&#45;&gt;Diagnosis</title>
<path fill="none" stroke="black" d="M1042.33,-744.26C1105.47,-722.93 1177.49,-693.83 1237.5,-657 1251.26,-648.56 1264.88,-638.85 1278.05,-628.51"/>
<polygon fill="black" stroke="black" points="1280.56,-630.99 1286.18,-622.01 1276.19,-625.52 1280.56,-630.99"/>
<text text-anchor="middle" x="1229" y="-678.8" font-family="Times,serif" font-size="14.00">diagnosis</text>
</g>
<!-- File -->
<g id="node11" class="node">
<title>File</title>
<path fill="none" stroke="black" d="M1034.5,-392C1034.5,-392 1216.5,-392 1216.5,-392 1222.5,-392 1228.5,-398 1228.5,-404 1228.5,-404 1228.5,-610 1228.5,-610 1228.5,-616 1222.5,-622 1216.5,-622 1216.5,-622 1034.5,-622 1034.5,-622 1028.5,-622 1022.5,-616 1022.5,-610 1022.5,-610 1022.5,-404 1022.5,-404 1022.5,-398 1028.5,-392 1034.5,-392"/>
<text text-anchor="middle" x="1041.5" y="-503.3" font-family="Times,serif" font-size="14.00">File</text>
<polyline fill="none" stroke="black" points="1060.5,-392 1060.5,-622 "/>
<text text-anchor="middle" x="1070.5" y="-503.3" font-family="Times,serif" font-size="14.00"> </text>
<polyline fill="none" stroke="black" points="1080.5,-392 1080.5,-622 "/>
<text text-anchor="middle" x="1144.5" y="-606.8" font-family="Times,serif" font-size="14.00">byte_size</text>
<polyline fill="none" stroke="black" points="1080.5,-599 1208.5,-599 "/>
<text text-anchor="middle" x="1144.5" y="-583.8" font-family="Times,serif" font-size="14.00">checksum</text>
<polyline fill="none" stroke="black" points="1080.5,-576 1208.5,-576 "/>
<text text-anchor="middle" x="1144.5" y="-560.8" font-family="Times,serif" font-size="14.00">data_category</text>
<polyline fill="none" stroke="black" points="1080.5,-553 1208.5,-553 "/>
<text text-anchor="middle" x="1144.5" y="-537.8" font-family="Times,serif" font-size="14.00">data_type</text>
<polyline fill="none" stroke="black" points="1080.5,-530 1208.5,-530 "/>
<text text-anchor="middle" x="1144.5" y="-514.8" font-family="Times,serif" font-size="14.00">describedBy</text>
<polyline fill="none" stroke="black" points="1080.5,-507 1208.5,-507 "/>
<text text-anchor="middle" x="1144.5" y="-491.8" font-family="Times,serif" font-size="14.00">file_format</text>
<polyline fill="none" stroke="black" points="1080.5,-484 1208.5,-484 "/>
<text text-anchor="middle" x="1144.5" y="-468.8" font-family="Times,serif" font-size="14.00">id</text>
<polyline fill="none" stroke="black" points="1080.5,-461 1208.5,-461 "/>
<text text-anchor="middle" x="1144.5" y="-445.8" font-family="Times,serif" font-size="14.00">label</text>
<polyline fill="none" stroke="black" points="1080.5,-438 1208.5,-438 "/>
<text text-anchor="middle" x="1144.5" y="-422.8" font-family="Times,serif" font-size="14.00">media_type</text>
<polyline fill="none" stroke="black" points="1080.5,-415 1208.5,-415 "/>
<text text-anchor="middle" x="1144.5" y="-399.8" font-family="Times,serif" font-size="14.00">reference_assembly</text>
<polyline fill="none" stroke="black" points="1208.5,-392 1208.5,-622 "/>
<text text-anchor="middle" x="1218.5" y="-503.3" font-family="Times,serif" font-size="14.00"> </text>
</g>
<!-- ResearchSubject&#45;&gt;File -->
<g id="edge6" class="edge">
<title>ResearchSubject&#45;&gt;File</title>
<path fill="none" stroke="black" d="M941.32,-731.24C962.72,-708.54 987.18,-681.91 1008.5,-657 1015.86,-648.4 1023.35,-639.42 1030.82,-630.31"/>
<polygon fill="black" stroke="black" points="1033.75,-632.25 1037.36,-622.29 1028.33,-627.82 1033.75,-632.25"/>
<text text-anchor="middle" x="1002.5" y="-678.8" font-family="Times,serif" font-size="14.00">file</text>
</g>
<!-- Specimen -->
<g id="node13" class="node">
<title>Specimen</title>
<path fill="none" stroke="black" d="M576.5,-357.5C576.5,-357.5 838.5,-357.5 838.5,-357.5 844.5,-357.5 850.5,-363.5 850.5,-369.5 850.5,-369.5 850.5,-644.5 850.5,-644.5 850.5,-650.5 844.5,-656.5 838.5,-656.5 838.5,-656.5 576.5,-656.5 576.5,-656.5 570.5,-656.5 564.5,-650.5 564.5,-644.5 564.5,-644.5 564.5,-369.5 564.5,-369.5 564.5,-363.5 570.5,-357.5 576.5,-357.5"/>
<text text-anchor="middle" x="600.5" y="-503.3" font-family="Times,serif" font-size="14.00">Specimen</text>
<polyline fill="none" stroke="black" points="636.5,-357.5 636.5,-656.5 "/>
<text text-anchor="middle" x="646.5" y="-503.3" font-family="Times,serif" font-size="14.00"> </text>
<polyline fill="none" stroke="black" points="656.5,-357.5 656.5,-656.5 "/>
<text text-anchor="middle" x="743.5" y="-641.3" font-family="Times,serif" font-size="14.00">age_at_collection</text>
<polyline fill="none" stroke="black" points="656.5,-633.5 830.5,-633.5 "/>
<text text-anchor="middle" x="743.5" y="-618.3" font-family="Times,serif" font-size="14.00">analyte_type</text>
<polyline fill="none" stroke="black" points="656.5,-610.5 830.5,-610.5 "/>
<text text-anchor="middle" x="743.5" y="-595.3" font-family="Times,serif" font-size="14.00">anatomical_site</text>
<polyline fill="none" stroke="black" points="656.5,-587.5 830.5,-587.5 "/>
<text text-anchor="middle" x="743.5" y="-572.3" font-family="Times,serif" font-size="14.00">cellular_composition</text>
<polyline fill="none" stroke="black" points="656.5,-564.5 830.5,-564.5 "/>
<text text-anchor="middle" x="743.5" y="-549.3" font-family="Times,serif" font-size="14.00">derived_from_specimen</text>
<polyline fill="none" stroke="black" points="656.5,-541.5 830.5,-541.5 "/>
<text text-anchor="middle" x="743.5" y="-526.3" font-family="Times,serif" font-size="14.00">describedBy</text>
<polyline fill="none" stroke="black" points="656.5,-518.5 830.5,-518.5 "/>
<text text-anchor="middle" x="743.5" y="-503.3" font-family="Times,serif" font-size="14.00">general_tissue_morphology</text>
<polyline fill="none" stroke="black" points="656.5,-495.5 830.5,-495.5 "/>
<text text-anchor="middle" x="743.5" y="-480.3" font-family="Times,serif" font-size="14.00">id</text>
<polyline fill="none" stroke="black" points="656.5,-472.5 830.5,-472.5 "/>
<text text-anchor="middle" x="743.5" y="-457.3" font-family="Times,serif" font-size="14.00">matched_normal_flag</text>
<polyline fill="none" stroke="black" points="656.5,-449.5 830.5,-449.5 "/>
<text text-anchor="middle" x="743.5" y="-434.3" font-family="Times,serif" font-size="14.00">qualification_status_flag</text>
<polyline fill="none" stroke="black" points="656.5,-426.5 830.5,-426.5 "/>
<text text-anchor="middle" x="743.5" y="-411.3" font-family="Times,serif" font-size="14.00">source_material_type</text>
<polyline fill="none" stroke="black" points="656.5,-403.5 830.5,-403.5 "/>
<text text-anchor="middle" x="743.5" y="-388.3" font-family="Times,serif" font-size="14.00">specific_tissue_morphology</text>
<polyline fill="none" stroke="black" points="656.5,-380.5 830.5,-380.5 "/>
<text text-anchor="middle" x="743.5" y="-365.3" font-family="Times,serif" font-size="14.00">specimen_type</text>
<polyline fill="none" stroke="black" points="830.5,-357.5 830.5,-656.5 "/>
<text text-anchor="middle" x="840.5" y="-503.3" font-family="Times,serif" font-size="14.00"> </text>
</g>
<!-- ResearchSubject&#45;&gt;Specimen -->
<g id="edge8" class="edge">
<title>ResearchSubject&#45;&gt;Specimen</title>
<path fill="none" stroke="black" d="M847.06,-731.31C837.89,-717.85 828.25,-703.48 819.5,-690 814.33,-682.03 809.07,-673.84 803.8,-665.54"/>
<polygon fill="black" stroke="black" points="806.61,-663.43 798.3,-656.86 800.69,-667.18 806.61,-663.43"/>
<text text-anchor="middle" x="846" y="-678.8" font-family="Times,serif" font-size="14.00">specimen</text>
</g>
<!-- Quantity -->
<g id="node7" class="node">
<title>Quantity</title>
<path fill="none" stroke="black" d="M223.5,-771C223.5,-771 351.5,-771 351.5,-771 357.5,-771 363.5,-777 363.5,-783 363.5,-783 363.5,-795 363.5,-795 363.5,-801 357.5,-807 351.5,-807 351.5,-807 223.5,-807 223.5,-807 217.5,-807 211.5,-801 211.5,-795 211.5,-795 211.5,-783 211.5,-783 211.5,-777 217.5,-771 223.5,-771"/>
<text text-anchor="middle" x="244" y="-785.3" font-family="Times,serif" font-size="14.00">Quantity</text>
<polyline fill="none" stroke="black" points="276.5,-771 276.5,-807 "/>
<text text-anchor="middle" x="286.5" y="-785.3" font-family="Times,serif" font-size="14.00"> </text>
<polyline fill="none" stroke="black" points="296.5,-771 296.5,-807 "/>
<text text-anchor="middle" x="320" y="-785.3" font-family="Times,serif" font-size="14.00">value</text>
<polyline fill="none" stroke="black" points="343.5,-771 343.5,-807 "/>
<text text-anchor="middle" x="353.5" y="-785.3" font-family="Times,serif" font-size="14.00"> </text>
</g>
<!-- Quantity&#45;&gt;Coding -->
<g id="edge9" class="edge">
<title>Quantity&#45;&gt;Coding</title>
<path fill="none" stroke="black" d="M277.05,-770.71C266.22,-751.7 249.99,-719.89 243.5,-690 234.44,-648.27 234.67,-599.87 236.9,-563.48"/>
<polygon fill="black" stroke="black" points="240.42,-563.28 237.62,-553.07 233.44,-562.81 240.42,-563.28"/>
<text text-anchor="middle" x="254.5" y="-678.8" font-family="Times,serif" font-size="14.00">unit</text>
</g>
<!-- Quantity&#45;&gt;Coding -->
<g id="edge14" class="edge">
<title>Quantity&#45;&gt;Coding</title>
<path fill="none" stroke="black" d="M284.75,-770.91C278.26,-730.5 261.73,-627.67 251.38,-563.24"/>
<polygon fill="black" stroke="black" points="254.81,-562.56 249.77,-553.25 247.9,-563.67 254.81,-562.56"/>
<text text-anchor="middle" x="304.5" y="-678.8" font-family="Times,serif" font-size="14.00">comparator</text>
</g>
<!-- ExternalReference -->
<g id="node8" class="node">
<title>ExternalReference</title>
<path fill="none" stroke="black" d="M1582.5,-461C1582.5,-461 1810.5,-461 1810.5,-461 1816.5,-461 1822.5,-467 1822.5,-473 1822.5,-473 1822.5,-541 1822.5,-541 1822.5,-547 1816.5,-553 1810.5,-553 1810.5,-553 1582.5,-553 1582.5,-553 1576.5,-553 1570.5,-547 1570.5,-541 1570.5,-541 1570.5,-473 1570.5,-473 1570.5,-467 1576.5,-461 1582.5,-461"/>
<text text-anchor="middle" x="1631" y="-503.3" font-family="Times,serif" font-size="14.00">ExternalReference</text>
<polyline fill="none" stroke="black" points="1691.5,-461 1691.5,-553 "/>
<text text-anchor="middle" x="1701.5" y="-503.3" font-family="Times,serif" font-size="14.00"> </text>
<polyline fill="none" stroke="black" points="1711.5,-461 1711.5,-553 "/>
<text text-anchor="middle" x="1757" y="-537.8" font-family="Times,serif" font-size="14.00">reference_url</text>
<polyline fill="none" stroke="black" points="1711.5,-530 1802.5,-530 "/>
<text text-anchor="middle" x="1757" y="-514.8" font-family="Times,serif" font-size="14.00">term_id</text>
<polyline fill="none" stroke="black" points="1711.5,-507 1802.5,-507 "/>
<text text-anchor="middle" x="1757" y="-491.8" font-family="Times,serif" font-size="14.00">term_label</text>
<polyline fill="none" stroke="black" points="1711.5,-484 1802.5,-484 "/>
<text text-anchor="middle" x="1757" y="-468.8" font-family="Times,serif" font-size="14.00">version</text>
<polyline fill="none" stroke="black" points="1802.5,-461 1802.5,-553 "/>
<text text-anchor="middle" x="1812.5" y="-503.3" font-family="Times,serif" font-size="14.00"> </text>
</g>
<!-- Treatment -->
<g id="node10" class="node">
<title>Treatment</title>
<path fill="none" stroke="black" d="M1279,-144.5C1279,-144.5 1520,-144.5 1520,-144.5 1526,-144.5 1532,-150.5 1532,-156.5 1532,-156.5 1532,-270.5 1532,-270.5 1532,-276.5 1526,-282.5 1520,-282.5 1520,-282.5 1279,-282.5 1279,-282.5 1273,-282.5 1267,-276.5 1267,-270.5 1267,-270.5 1267,-156.5 1267,-156.5 1267,-150.5 1273,-144.5 1279,-144.5"/>
<text text-anchor="middle" x="1304" y="-209.8" font-family="Times,serif" font-size="14.00">Treatment</text>
<polyline fill="none" stroke="black" points="1341,-144.5 1341,-282.5 "/>
<text text-anchor="middle" x="1351" y="-209.8" font-family="Times,serif" font-size="14.00"> </text>
<polyline fill="none" stroke="black" points="1361,-144.5 1361,-282.5 "/>
<text text-anchor="middle" x="1436.5" y="-267.3" font-family="Times,serif" font-size="14.00">days_to_treatment_start</text>
<polyline fill="none" stroke="black" points="1361,-259.5 1512,-259.5 "/>
<text text-anchor="middle" x="1436.5" y="-244.3" font-family="Times,serif" font-size="14.00">days_treatment_end</text>
<polyline fill="none" stroke="black" points="1361,-236.5 1512,-236.5 "/>
<text text-anchor="middle" x="1436.5" y="-221.3" font-family="Times,serif" font-size="14.00">describedBy</text>
<polyline fill="none" stroke="black" points="1361,-213.5 1512,-213.5 "/>
<text text-anchor="middle" x="1436.5" y="-198.3" font-family="Times,serif" font-size="14.00">id</text>
<polyline fill="none" stroke="black" points="1361,-190.5 1512,-190.5 "/>
<text text-anchor="middle" x="1436.5" y="-175.3" font-family="Times,serif" font-size="14.00">treatment_outcome</text>
<polyline fill="none" stroke="black" points="1361,-167.5 1512,-167.5 "/>
<text text-anchor="middle" x="1436.5" y="-152.3" font-family="Times,serif" font-size="14.00">treatment_type</text>
<polyline fill="none" stroke="black" points="1512,-144.5 1512,-282.5 "/>
<text text-anchor="middle" x="1522" y="-209.8" font-family="Times,serif" font-size="14.00"> </text>
</g>
<!-- Diagnosis&#45;&gt;Treatment -->
<g id="edge2" class="edge">
<title>Diagnosis&#45;&gt;Treatment</title>
<path fill="none" stroke="black" d="M1399.5,-391.63C1399.5,-358.53 1399.5,-323.16 1399.5,-292.79"/>
<polygon fill="black" stroke="black" points="1403,-292.7 1399.5,-282.7 1396,-292.7 1403,-292.7"/>
<text text-anchor="middle" x="1426" y="-327.8" font-family="Times,serif" font-size="14.00">treatment</text>
</g>
<!-- Identifier -->
<g id="node12" class="node">
<title>Identifier</title>
<path fill="none" stroke="black" d="M1330,-0.5C1330,-0.5 1469,-0.5 1469,-0.5 1475,-0.5 1481,-6.5 1481,-12.5 1481,-12.5 1481,-57.5 1481,-57.5 1481,-63.5 1475,-69.5 1469,-69.5 1469,-69.5 1330,-69.5 1330,-69.5 1324,-69.5 1318,-63.5 1318,-57.5 1318,-57.5 1318,-12.5 1318,-12.5 1318,-6.5 1324,-0.5 1330,-0.5"/>
<text text-anchor="middle" x="1352" y="-31.3" font-family="Times,serif" font-size="14.00">Identifier</text>
<polyline fill="none" stroke="black" points="1386,-0.5 1386,-69.5 "/>
<text text-anchor="middle" x="1396" y="-31.3" font-family="Times,serif" font-size="14.00"> </text>
<polyline fill="none" stroke="black" points="1406,-0.5 1406,-69.5 "/>
<text text-anchor="middle" x="1433.5" y="-54.3" font-family="Times,serif" font-size="14.00">system</text>
<polyline fill="none" stroke="black" points="1406,-46.5 1461,-46.5 "/>
<text text-anchor="middle" x="1433.5" y="-31.3" font-family="Times,serif" font-size="14.00">type</text>
<polyline fill="none" stroke="black" points="1406,-23.5 1461,-23.5 "/>
<text text-anchor="middle" x="1433.5" y="-8.3" font-family="Times,serif" font-size="14.00">value</text>
<polyline fill="none" stroke="black" points="1461,-0.5 1461,-69.5 "/>
<text text-anchor="middle" x="1471" y="-31.3" font-family="Times,serif" font-size="14.00"> </text>
</g>
<!-- Treatment&#45;&gt;Identifier -->
<g id="edge3" class="edge">
<title>Treatment&#45;&gt;Identifier</title>
<path fill="none" stroke="black" d="M1399.5,-144.26C1399.5,-122.55 1399.5,-99.14 1399.5,-79.66"/>
<polygon fill="black" stroke="black" points="1403,-79.57 1399.5,-69.57 1396,-79.57 1403,-79.57"/>
<text text-anchor="middle" x="1425" y="-91.8" font-family="Times,serif" font-size="14.00">identifier</text>
</g>
<!-- Specimen&#45;&gt;Patient -->
<g id="edge7" class="edge">
<title>Specimen&#45;&gt;Patient</title>
<path fill="none" stroke="black" d="M737.61,-357.25C741.19,-345.86 745.15,-334.66 749.5,-324 750.74,-320.96 752.07,-317.9 753.45,-314.84"/>
<polygon fill="black" stroke="black" points="756.68,-316.22 757.8,-305.68 750.35,-313.21 756.68,-316.22"/>
<text text-anchor="middle" x="811" y="-327.8" font-family="Times,serif" font-size="14.00">derived_from_subject</text>
</g>
<!-- Dataset -->
<g id="node14" class="node">
<title>Dataset</title>
<path fill="none" stroke="black" d="M1603.5,-708.5C1603.5,-708.5 1789.5,-708.5 1789.5,-708.5 1795.5,-708.5 1801.5,-714.5 1801.5,-720.5 1801.5,-720.5 1801.5,-857.5 1801.5,-857.5 1801.5,-863.5 1795.5,-869.5 1789.5,-869.5 1789.5,-869.5 1603.5,-869.5 1603.5,-869.5 1597.5,-869.5 1591.5,-863.5 1591.5,-857.5 1591.5,-857.5 1591.5,-720.5 1591.5,-720.5 1591.5,-714.5 1597.5,-708.5 1603.5,-708.5"/>
<text text-anchor="middle" x="1620.5" y="-785.3" font-family="Times,serif" font-size="14.00">Dataset</text>
<polyline fill="none" stroke="black" points="1649.5,-708.5 1649.5,-869.5 "/>
<text text-anchor="middle" x="1659.5" y="-785.3" font-family="Times,serif" font-size="14.00"> </text>
<polyline fill="none" stroke="black" points="1669.5,-708.5 1669.5,-869.5 "/>
<text text-anchor="middle" x="1725.5" y="-854.3" font-family="Times,serif" font-size="14.00">conformsTo</text>
<polyline fill="none" stroke="black" points="1669.5,-846.5 1781.5,-846.5 "/>
<text text-anchor="middle" x="1725.5" y="-831.3" font-family="Times,serif" font-size="14.00">dct_title</text>
<polyline fill="none" stroke="black" points="1669.5,-823.5 1781.5,-823.5 "/>
<text text-anchor="middle" x="1725.5" y="-808.3" font-family="Times,serif" font-size="14.00">describedBy</text>
<polyline fill="none" stroke="black" points="1669.5,-800.5 1781.5,-800.5 "/>
<text text-anchor="middle" x="1725.5" y="-785.3" font-family="Times,serif" font-size="14.00">id</text>
<polyline fill="none" stroke="black" points="1669.5,-777.5 1781.5,-777.5 "/>
<text text-anchor="middle" x="1725.5" y="-762.3" font-family="Times,serif" font-size="14.00">label</text>
<polyline fill="none" stroke="black" points="1669.5,-754.5 1781.5,-754.5 "/>
<text text-anchor="middle" x="1725.5" y="-739.3" font-family="Times,serif" font-size="14.00">license</text>
<polyline fill="none" stroke="black" points="1669.5,-731.5 1781.5,-731.5 "/>
<text text-anchor="middle" x="1725.5" y="-716.3" font-family="Times,serif" font-size="14.00">wasGeneratedBy</text>
<polyline fill="none" stroke="black" points="1781.5,-708.5 1781.5,-869.5 "/>
<text text-anchor="middle" x="1791.5" y="-785.3" font-family="Times,serif" font-size="14.00"> </text>
</g>
<!-- Dataset&#45;&gt;ExternalReference -->
<g id="edge4" class="edge">
<title>Dataset&#45;&gt;ExternalReference</title>
<path fill="none" stroke="black" d="M1636.72,-708.4C1633.88,-702.36 1631.42,-696.2 1629.5,-690 1616.02,-646.41 1635.59,-597.97 1656.99,-562.03"/>
<polygon fill="black" stroke="black" points="1660.18,-563.52 1662.45,-553.17 1654.23,-559.84 1660.18,-563.52"/>
<text text-anchor="middle" x="1686" y="-678.8" font-family="Times,serif" font-size="14.00">data_use_restriction</text>
</g>
<!-- Dataset&#45;&gt;ExternalReference -->
<g id="edge5" class="edge">
<title>Dataset&#45;&gt;ExternalReference</title>
<path fill="none" stroke="black" d="M1737.33,-708.25C1739.38,-702.17 1741.15,-696.05 1742.5,-690 1752.11,-646.93 1738.68,-598.51 1723.9,-562.44"/>
<polygon fill="black" stroke="black" points="1727.06,-560.92 1719.92,-553.08 1720.62,-563.65 1727.06,-560.92"/>
<text text-anchor="middle" x="1800" y="-678.8" font-family="Times,serif" font-size="14.00">data_use_limitation</text>
</g>
</g>
</svg>
