<?xml version="1.0" encoding="UTF-8" standalone="no"?>
<!DOCTYPE svg PUBLIC "-//W3C//DTD SVG 1.1//EN"
 "http://www.w3.org/Graphics/SVG/1.1/DTD/svg11.dtd">
<!-- Generated by graphviz version 2.48.0 (20210717.1556)
 -->
<!-- Title: Perl Pages: 1 -->
<svg width="1740pt" height="878pt"
 viewBox="0.00 0.00 1739.50 878.00" xmlns="http://www.w3.org/2000/svg" xmlns:xlink="http://www.w3.org/1999/xlink">
<g id="graph0" class="graph" transform="scale(1 1) rotate(0) translate(4 874)">
<title>Perl</title>
<polygon fill="white" stroke="transparent" points="-4,4 -4,-874 1735.5,-874 1735.5,4 -4,4"/>
<!-- Project -->
<g id="node1" class="node">
<title>Project</title>
<path fill="none" stroke="black" d="M12,-167.5C12,-167.5 195,-167.5 195,-167.5 201,-167.5 207,-173.5 207,-179.5 207,-179.5 207,-339.5 207,-339.5 207,-345.5 201,-351.5 195,-351.5 195,-351.5 12,-351.5 12,-351.5 6,-351.5 0,-345.5 0,-339.5 0,-339.5 0,-179.5 0,-179.5 0,-173.5 6,-167.5 12,-167.5"/>
<text text-anchor="middle" x="28" y="-255.8" font-family="Times,serif" font-size="14.00">Project</text>
<polyline fill="none" stroke="black" points="56,-167.5 56,-351.5 "/>
<text text-anchor="middle" x="66" y="-255.8" font-family="Times,serif" font-size="14.00"> </text>
<polyline fill="none" stroke="black" points="76,-167.5 76,-351.5 "/>
<text text-anchor="middle" x="131.5" y="-336.3" font-family="Times,serif" font-size="14.00">dbgap_accession</text>
<polyline fill="none" stroke="black" points="76,-328.5 187,-328.5 "/>
<text text-anchor="middle" x="131.5" y="-313.3" font-family="Times,serif" font-size="14.00">dct_title</text>
<polyline fill="none" stroke="black" points="76,-305.5 187,-305.5 "/>
<text text-anchor="middle" x="131.5" y="-290.3" font-family="Times,serif" font-size="14.00">describedBy</text>
<polyline fill="none" stroke="black" points="76,-282.5 187,-282.5 "/>
<text text-anchor="middle" x="131.5" y="-267.3" font-family="Times,serif" font-size="14.00">disease_site</text>
<polyline fill="none" stroke="black" points="76,-259.5 187,-259.5 "/>
<text text-anchor="middle" x="131.5" y="-244.3" font-family="Times,serif" font-size="14.00">disease_type</text>
<polyline fill="none" stroke="black" points="76,-236.5 187,-236.5 "/>
<text text-anchor="middle" x="131.5" y="-221.3" font-family="Times,serif" font-size="14.00">id</text>
<polyline fill="none" stroke="black" points="76,-213.5 187,-213.5 "/>
<text text-anchor="middle" x="131.5" y="-198.3" font-family="Times,serif" font-size="14.00">label</text>
<polyline fill="none" stroke="black" points="76,-190.5 187,-190.5 "/>
<text text-anchor="middle" x="131.5" y="-175.3" font-family="Times,serif" font-size="14.00">program</text>
<polyline fill="none" stroke="black" points="187,-167.5 187,-351.5 "/>
<text text-anchor="middle" x="197" y="-255.8" font-family="Times,serif" font-size="14.00"> </text>
</g>
<!-- Coding -->
<g id="node3" class="node">
<title>Coding</title>
<path fill="none" stroke="black" d="M234.5,-12C234.5,-12 366.5,-12 366.5,-12 372.5,-12 378.5,-18 378.5,-24 378.5,-24 378.5,-92 378.5,-92 378.5,-98 372.5,-104 366.5,-104 366.5,-104 234.5,-104 234.5,-104 228.5,-104 222.5,-98 222.5,-92 222.5,-92 222.5,-24 222.5,-24 222.5,-18 228.5,-12 234.5,-12"/>
<text text-anchor="middle" x="251.5" y="-54.3" font-family="Times,serif" font-size="14.00">Coding</text>
<polyline fill="none" stroke="black" points="280.5,-12 280.5,-104 "/>
<text text-anchor="middle" x="290.5" y="-54.3" font-family="Times,serif" font-size="14.00"> </text>
<polyline fill="none" stroke="black" points="300.5,-12 300.5,-104 "/>
<text text-anchor="middle" x="329.5" y="-88.8" font-family="Times,serif" font-size="14.00">code</text>
<polyline fill="none" stroke="black" points="300.5,-81 358.5,-81 "/>
<text text-anchor="middle" x="329.5" y="-65.8" font-family="Times,serif" font-size="14.00">display</text>
<polyline fill="none" stroke="black" points="300.5,-58 358.5,-58 "/>
<text text-anchor="middle" x="329.5" y="-42.8" font-family="Times,serif" font-size="14.00">system</text>
<polyline fill="none" stroke="black" points="300.5,-35 358.5,-35 "/>
<text text-anchor="middle" x="329.5" y="-19.8" font-family="Times,serif" font-size="14.00">version</text>
<polyline fill="none" stroke="black" points="358.5,-12 358.5,-104 "/>
<text text-anchor="middle" x="368.5" y="-54.3" font-family="Times,serif" font-size="14.00"> </text>
</g>
<!-- Project&#45;&gt;Coding -->
<g id="edge18" class="edge">
<title>Project&#45;&gt;Coding</title>
<path fill="none" stroke="black" d="M190.66,-167.4C201.67,-156.1 212.81,-144.75 223.5,-134 230.71,-126.76 238.35,-119.18 245.92,-111.75"/>
<polygon fill="black" stroke="black" points="248.75,-113.88 253.44,-104.38 243.85,-108.87 248.75,-113.88"/>
<text text-anchor="middle" x="249" y="-137.8" font-family="Times,serif" font-size="14.00">identifier</text>
</g>
<!-- Study -->
<g id="node12" class="node">
<title>Study</title>
<path fill="none" stroke="black" d="M15.5,-0.5C15.5,-0.5 191.5,-0.5 191.5,-0.5 197.5,-0.5 203.5,-6.5 203.5,-12.5 203.5,-12.5 203.5,-103.5 203.5,-103.5 203.5,-109.5 197.5,-115.5 191.5,-115.5 191.5,-115.5 15.5,-115.5 15.5,-115.5 9.5,-115.5 3.5,-109.5 3.5,-103.5 3.5,-103.5 3.5,-12.5 3.5,-12.5 3.5,-6.5 9.5,-0.5 15.5,-0.5"/>
<text text-anchor="middle" x="28" y="-54.3" font-family="Times,serif" font-size="14.00">Study</text>
<polyline fill="none" stroke="black" points="52.5,-0.5 52.5,-115.5 "/>
<text text-anchor="middle" x="62.5" y="-54.3" font-family="Times,serif" font-size="14.00"> </text>
<polyline fill="none" stroke="black" points="72.5,-0.5 72.5,-115.5 "/>
<text text-anchor="middle" x="128" y="-100.3" font-family="Times,serif" font-size="14.00">dbgap_accession</text>
<polyline fill="none" stroke="black" points="72.5,-92.5 183.5,-92.5 "/>
<text text-anchor="middle" x="128" y="-77.3" font-family="Times,serif" font-size="14.00">embargo_date</text>
<polyline fill="none" stroke="black" points="72.5,-69.5 183.5,-69.5 "/>
<text text-anchor="middle" x="128" y="-54.3" font-family="Times,serif" font-size="14.00">identifier_value</text>
<polyline fill="none" stroke="black" points="72.5,-46.5 183.5,-46.5 "/>
<text text-anchor="middle" x="128" y="-31.3" font-family="Times,serif" font-size="14.00">study_label</text>
<polyline fill="none" stroke="black" points="72.5,-23.5 183.5,-23.5 "/>
<text text-anchor="middle" x="128" y="-8.3" font-family="Times,serif" font-size="14.00">system</text>
<polyline fill="none" stroke="black" points="183.5,-0.5 183.5,-115.5 "/>
<text text-anchor="middle" x="193.5" y="-54.3" font-family="Times,serif" font-size="14.00"> </text>
</g>
<!-- Project&#45;&gt;Study -->
<g id="edge8" class="edge">
<title>Project&#45;&gt;Study</title>
<path fill="none" stroke="black" d="M103.5,-167.22C103.5,-153.37 103.5,-139.31 103.5,-126.1"/>
<polygon fill="black" stroke="black" points="107,-125.72 103.5,-115.72 100,-125.72 107,-125.72"/>
<text text-anchor="middle" x="123" y="-137.8" font-family="Times,serif" font-size="14.00">studies</text>
</g>
<!-- Dataset -->
<g id="node2" class="node">
<title>Dataset</title>
<path fill="none" stroke="black" d="M1428.5,-179C1428.5,-179 1614.5,-179 1614.5,-179 1620.5,-179 1626.5,-185 1626.5,-191 1626.5,-191 1626.5,-328 1626.5,-328 1626.5,-334 1620.5,-340 1614.5,-340 1614.5,-340 1428.5,-340 1428.5,-340 1422.5,-340 1416.5,-334 1416.5,-328 1416.5,-328 1416.5,-191 1416.5,-191 1416.5,-185 1422.5,-179 1428.5,-179"/>
<text text-anchor="middle" x="1445.5" y="-255.8" font-family="Times,serif" font-size="14.00">Dataset</text>
<polyline fill="none" stroke="black" points="1474.5,-179 1474.5,-340 "/>
<text text-anchor="middle" x="1484.5" y="-255.8" font-family="Times,serif" font-size="14.00"> </text>
<polyline fill="none" stroke="black" points="1494.5,-179 1494.5,-340 "/>
<text text-anchor="middle" x="1550.5" y="-324.8" font-family="Times,serif" font-size="14.00">conformsTo</text>
<polyline fill="none" stroke="black" points="1494.5,-317 1606.5,-317 "/>
<text text-anchor="middle" x="1550.5" y="-301.8" font-family="Times,serif" font-size="14.00">dct_title</text>
<polyline fill="none" stroke="black" points="1494.5,-294 1606.5,-294 "/>
<text text-anchor="middle" x="1550.5" y="-278.8" font-family="Times,serif" font-size="14.00">describedBy</text>
<polyline fill="none" stroke="black" points="1494.5,-271 1606.5,-271 "/>
<text text-anchor="middle" x="1550.5" y="-255.8" font-family="Times,serif" font-size="14.00">id</text>
<polyline fill="none" stroke="black" points="1494.5,-248 1606.5,-248 "/>
<text text-anchor="middle" x="1550.5" y="-232.8" font-family="Times,serif" font-size="14.00">label</text>
<polyline fill="none" stroke="black" points="1494.5,-225 1606.5,-225 "/>
<text text-anchor="middle" x="1550.5" y="-209.8" font-family="Times,serif" font-size="14.00">license</text>
<polyline fill="none" stroke="black" points="1494.5,-202 1606.5,-202 "/>
<text text-anchor="middle" x="1550.5" y="-186.8" font-family="Times,serif" font-size="14.00">wasGeneratedBy</text>
<polyline fill="none" stroke="black" points="1606.5,-179 1606.5,-340 "/>
<text text-anchor="middle" x="1616.5" y="-255.8" font-family="Times,serif" font-size="14.00"> </text>
</g>
<!-- ExternalReference -->
<g id="node4" class="node">
<title>ExternalReference</title>
<path fill="none" stroke="black" d="M1458.5,-12C1458.5,-12 1686.5,-12 1686.5,-12 1692.5,-12 1698.5,-18 1698.5,-24 1698.5,-24 1698.5,-92 1698.5,-92 1698.5,-98 1692.5,-104 1686.5,-104 1686.5,-104 1458.5,-104 1458.5,-104 1452.5,-104 1446.5,-98 1446.5,-92 1446.5,-92 1446.5,-24 1446.5,-24 1446.5,-18 1452.5,-12 1458.5,-12"/>
<text text-anchor="middle" x="1507" y="-54.3" font-family="Times,serif" font-size="14.00">ExternalReference</text>
<polyline fill="none" stroke="black" points="1567.5,-12 1567.5,-104 "/>
<text text-anchor="middle" x="1577.5" y="-54.3" font-family="Times,serif" font-size="14.00"> </text>
<polyline fill="none" stroke="black" points="1587.5,-12 1587.5,-104 "/>
<text text-anchor="middle" x="1633" y="-88.8" font-family="Times,serif" font-size="14.00">reference_url</text>
<polyline fill="none" stroke="black" points="1587.5,-81 1678.5,-81 "/>
<text text-anchor="middle" x="1633" y="-65.8" font-family="Times,serif" font-size="14.00">term_id</text>
<polyline fill="none" stroke="black" points="1587.5,-58 1678.5,-58 "/>
<text text-anchor="middle" x="1633" y="-42.8" font-family="Times,serif" font-size="14.00">term_label</text>
<polyline fill="none" stroke="black" points="1587.5,-35 1678.5,-35 "/>
<text text-anchor="middle" x="1633" y="-19.8" font-family="Times,serif" font-size="14.00">version</text>
<polyline fill="none" stroke="black" points="1678.5,-12 1678.5,-104 "/>
<text text-anchor="middle" x="1688.5" y="-54.3" font-family="Times,serif" font-size="14.00"> </text>
</g>
<!-- Dataset&#45;&gt;ExternalReference -->
<g id="edge13" class="edge">
<title>Dataset&#45;&gt;ExternalReference</title>
<path fill="none" stroke="black" d="M1602.95,-178.76C1609.2,-169.31 1614.58,-159.33 1618.5,-149 1622.97,-137.22 1621.31,-124.97 1616.61,-113.43"/>
<polygon fill="black" stroke="black" points="1619.74,-111.86 1612.25,-104.36 1613.43,-114.89 1619.74,-111.86"/>
<text text-anchor="middle" x="1676" y="-137.8" font-family="Times,serif" font-size="14.00">data_use_limitation</text>
</g>
<!-- Dataset&#45;&gt;ExternalReference -->
<g id="edge22" class="edge">
<title>Dataset&#45;&gt;ExternalReference</title>
<path fill="none" stroke="black" d="M1496.13,-178.72C1494.79,-163.55 1495.91,-148.03 1501.5,-134 1504.49,-126.5 1508.61,-119.33 1513.39,-112.59"/>
<polygon fill="black" stroke="black" points="1516.45,-114.36 1519.76,-104.29 1510.89,-110.09 1516.45,-114.36"/>
<text text-anchor="middle" x="1558" y="-137.8" font-family="Times,serif" font-size="14.00">data_use_restriction</text>
</g>
<!-- Identifier -->
<g id="node8" class="node">
<title>Identifier</title>
<path fill="none" stroke="black" d="M839.5,-23.5C839.5,-23.5 1027.5,-23.5 1027.5,-23.5 1033.5,-23.5 1039.5,-29.5 1039.5,-35.5 1039.5,-35.5 1039.5,-80.5 1039.5,-80.5 1039.5,-86.5 1033.5,-92.5 1027.5,-92.5 1027.5,-92.5 839.5,-92.5 839.5,-92.5 833.5,-92.5 827.5,-86.5 827.5,-80.5 827.5,-80.5 827.5,-35.5 827.5,-35.5 827.5,-29.5 833.5,-23.5 839.5,-23.5"/>
<text text-anchor="middle" x="861.5" y="-54.3" font-family="Times,serif" font-size="14.00">Identifier</text>
<polyline fill="none" stroke="black" points="895.5,-23.5 895.5,-92.5 "/>
<text text-anchor="middle" x="905.5" y="-54.3" font-family="Times,serif" font-size="14.00"> </text>
<polyline fill="none" stroke="black" points="915.5,-23.5 915.5,-92.5 "/>
<text text-anchor="middle" x="967.5" y="-77.3" font-family="Times,serif" font-size="14.00">identifier_value</text>
<polyline fill="none" stroke="black" points="915.5,-69.5 1019.5,-69.5 "/>
<text text-anchor="middle" x="967.5" y="-54.3" font-family="Times,serif" font-size="14.00">system</text>
<polyline fill="none" stroke="black" points="915.5,-46.5 1019.5,-46.5 "/>
<text text-anchor="middle" x="967.5" y="-31.3" font-family="Times,serif" font-size="14.00">type</text>
<polyline fill="none" stroke="black" points="1019.5,-23.5 1019.5,-92.5 "/>
<text text-anchor="middle" x="1029.5" y="-54.3" font-family="Times,serif" font-size="14.00"> </text>
</g>
<!-- Dataset&#45;&gt;Identifier -->
<g id="edge17" class="edge">
<title>Dataset&#45;&gt;Identifier</title>
<path fill="none" stroke="black" d="M1434.68,-178.74C1412.2,-161.65 1387.08,-145.34 1361.5,-134 1261.9,-89.83 1138.44,-71.63 1049.76,-64.15"/>
<polygon fill="black" stroke="black" points="1049.92,-60.65 1039.67,-63.34 1049.35,-67.63 1049.92,-60.65"/>
<text text-anchor="middle" x="1411" y="-137.8" font-family="Times,serif" font-size="14.00">identifier</text>
</g>
<!-- CodeableConcept -->
<g id="node5" class="node">
<title>CodeableConcept</title>
<path fill="none" stroke="black" d="M408,-241.5C408,-241.5 577,-241.5 577,-241.5 583,-241.5 589,-247.5 589,-253.5 589,-253.5 589,-265.5 589,-265.5 589,-271.5 583,-277.5 577,-277.5 577,-277.5 408,-277.5 408,-277.5 402,-277.5 396,-271.5 396,-265.5 396,-265.5 396,-253.5 396,-253.5 396,-247.5 402,-241.5 408,-241.5"/>
<text text-anchor="middle" x="454" y="-255.8" font-family="Times,serif" font-size="14.00">CodeableConcept</text>
<polyline fill="none" stroke="black" points="512,-241.5 512,-277.5 "/>
<text text-anchor="middle" x="522" y="-255.8" font-family="Times,serif" font-size="14.00"> </text>
<polyline fill="none" stroke="black" points="532,-241.5 532,-277.5 "/>
<text text-anchor="middle" x="550.5" y="-255.8" font-family="Times,serif" font-size="14.00">text</text>
<polyline fill="none" stroke="black" points="569,-241.5 569,-277.5 "/>
<text text-anchor="middle" x="579" y="-255.8" font-family="Times,serif" font-size="14.00"> </text>
</g>
<!-- CodeableConcept&#45;&gt;Coding -->
<g id="edge10" class="edge">
<title>CodeableConcept&#45;&gt;Coding</title>
<path fill="none" stroke="black" d="M476.13,-241.49C448.7,-212.99 392.37,-154.46 350.87,-111.34"/>
<polygon fill="black" stroke="black" points="353.28,-108.8 343.83,-104.02 348.24,-113.65 353.28,-108.8"/>
<text text-anchor="middle" x="405" y="-137.8" font-family="Times,serif" font-size="14.00">coding</text>
</g>
<!-- Specimen -->
<g id="node6" class="node">
<title>Specimen</title>
<path fill="none" stroke="black" d="M744.5,-403.5C744.5,-403.5 1006.5,-403.5 1006.5,-403.5 1012.5,-403.5 1018.5,-409.5 1018.5,-415.5 1018.5,-415.5 1018.5,-690.5 1018.5,-690.5 1018.5,-696.5 1012.5,-702.5 1006.5,-702.5 1006.5,-702.5 744.5,-702.5 744.5,-702.5 738.5,-702.5 732.5,-696.5 732.5,-690.5 732.5,-690.5 732.5,-415.5 732.5,-415.5 732.5,-409.5 738.5,-403.5 744.5,-403.5"/>
<text text-anchor="middle" x="768.5" y="-549.3" font-family="Times,serif" font-size="14.00">Specimen</text>
<polyline fill="none" stroke="black" points="804.5,-403.5 804.5,-702.5 "/>
<text text-anchor="middle" x="814.5" y="-549.3" font-family="Times,serif" font-size="14.00"> </text>
<polyline fill="none" stroke="black" points="824.5,-403.5 824.5,-702.5 "/>
<text text-anchor="middle" x="911.5" y="-687.3" font-family="Times,serif" font-size="14.00">age_at_collection</text>
<polyline fill="none" stroke="black" points="824.5,-679.5 998.5,-679.5 "/>
<text text-anchor="middle" x="911.5" y="-664.3" font-family="Times,serif" font-size="14.00">analyte_type</text>
<polyline fill="none" stroke="black" points="824.5,-656.5 998.5,-656.5 "/>
<text text-anchor="middle" x="911.5" y="-641.3" font-family="Times,serif" font-size="14.00">anatomical_site</text>
<polyline fill="none" stroke="black" points="824.5,-633.5 998.5,-633.5 "/>
<text text-anchor="middle" x="911.5" y="-618.3" font-family="Times,serif" font-size="14.00">cellular_composition</text>
<polyline fill="none" stroke="black" points="824.5,-610.5 998.5,-610.5 "/>
<text text-anchor="middle" x="911.5" y="-595.3" font-family="Times,serif" font-size="14.00">derived_from_specimen</text>
<polyline fill="none" stroke="black" points="824.5,-587.5 998.5,-587.5 "/>
<text text-anchor="middle" x="911.5" y="-572.3" font-family="Times,serif" font-size="14.00">describedBy</text>
<polyline fill="none" stroke="black" points="824.5,-564.5 998.5,-564.5 "/>
<text text-anchor="middle" x="911.5" y="-549.3" font-family="Times,serif" font-size="14.00">general_tissue_morphology</text>
<polyline fill="none" stroke="black" points="824.5,-541.5 998.5,-541.5 "/>
<text text-anchor="middle" x="911.5" y="-526.3" font-family="Times,serif" font-size="14.00">id</text>
<polyline fill="none" stroke="black" points="824.5,-518.5 998.5,-518.5 "/>
<text text-anchor="middle" x="911.5" y="-503.3" font-family="Times,serif" font-size="14.00">matched_normal_flag</text>
<polyline fill="none" stroke="black" points="824.5,-495.5 998.5,-495.5 "/>
<text text-anchor="middle" x="911.5" y="-480.3" font-family="Times,serif" font-size="14.00">qualification_status_flag</text>
<polyline fill="none" stroke="black" points="824.5,-472.5 998.5,-472.5 "/>
<text text-anchor="middle" x="911.5" y="-457.3" font-family="Times,serif" font-size="14.00">source_material_type</text>
<polyline fill="none" stroke="black" points="824.5,-449.5 998.5,-449.5 "/>
<text text-anchor="middle" x="911.5" y="-434.3" font-family="Times,serif" font-size="14.00">specific_tissue_morphology</text>
<polyline fill="none" stroke="black" points="824.5,-426.5 998.5,-426.5 "/>
<text text-anchor="middle" x="911.5" y="-411.3" font-family="Times,serif" font-size="14.00">specimen_type</text>
<polyline fill="none" stroke="black" points="998.5,-403.5 998.5,-702.5 "/>
<text text-anchor="middle" x="1008.5" y="-549.3" font-family="Times,serif" font-size="14.00"> </text>
</g>
<!-- Specimen&#45;&gt;Identifier -->
<g id="edge16" class="edge">
<title>Specimen&#45;&gt;Identifier</title>
<path fill="none" stroke="black" d="M790.52,-403.11C759.99,-329.14 741.44,-240.19 779.5,-167 794.66,-137.85 821.69,-114.93 848.92,-97.85"/>
<polygon fill="black" stroke="black" points="851.01,-100.68 857.75,-92.51 847.38,-94.69 851.01,-100.68"/>
<text text-anchor="middle" x="805" y="-255.8" font-family="Times,serif" font-size="14.00">identifier</text>
</g>
<!-- Patient -->
<g id="node14" class="node">
<title>Patient</title>
<path fill="none" stroke="black" d="M851.5,-167.5C851.5,-167.5 1015.5,-167.5 1015.5,-167.5 1021.5,-167.5 1027.5,-173.5 1027.5,-179.5 1027.5,-179.5 1027.5,-339.5 1027.5,-339.5 1027.5,-345.5 1021.5,-351.5 1015.5,-351.5 1015.5,-351.5 851.5,-351.5 851.5,-351.5 845.5,-351.5 839.5,-345.5 839.5,-339.5 839.5,-339.5 839.5,-179.5 839.5,-179.5 839.5,-173.5 845.5,-167.5 851.5,-167.5"/>
<text text-anchor="middle" x="867" y="-255.8" font-family="Times,serif" font-size="14.00">Patient</text>
<polyline fill="none" stroke="black" points="894.5,-167.5 894.5,-351.5 "/>
<text text-anchor="middle" x="904.5" y="-255.8" font-family="Times,serif" font-size="14.00"> </text>
<polyline fill="none" stroke="black" points="914.5,-167.5 914.5,-351.5 "/>
<text text-anchor="middle" x="961" y="-336.3" font-family="Times,serif" font-size="14.00">days_to_birth</text>
<polyline fill="none" stroke="black" points="914.5,-328.5 1007.5,-328.5 "/>
<text text-anchor="middle" x="961" y="-313.3" font-family="Times,serif" font-size="14.00">describedBy</text>
<polyline fill="none" stroke="black" points="914.5,-305.5 1007.5,-305.5 "/>
<text text-anchor="middle" x="961" y="-290.3" font-family="Times,serif" font-size="14.00">ethnicity</text>
<polyline fill="none" stroke="black" points="914.5,-282.5 1007.5,-282.5 "/>
<text text-anchor="middle" x="961" y="-267.3" font-family="Times,serif" font-size="14.00">id</text>
<polyline fill="none" stroke="black" points="914.5,-259.5 1007.5,-259.5 "/>
<text text-anchor="middle" x="961" y="-244.3" font-family="Times,serif" font-size="14.00">label</text>
<polyline fill="none" stroke="black" points="914.5,-236.5 1007.5,-236.5 "/>
<text text-anchor="middle" x="961" y="-221.3" font-family="Times,serif" font-size="14.00">race</text>
<polyline fill="none" stroke="black" points="914.5,-213.5 1007.5,-213.5 "/>
<text text-anchor="middle" x="961" y="-198.3" font-family="Times,serif" font-size="14.00">sex</text>
<polyline fill="none" stroke="black" points="914.5,-190.5 1007.5,-190.5 "/>
<text text-anchor="middle" x="961" y="-175.3" font-family="Times,serif" font-size="14.00">taxon</text>
<polyline fill="none" stroke="black" points="1007.5,-167.5 1007.5,-351.5 "/>
<text text-anchor="middle" x="1017.5" y="-255.8" font-family="Times,serif" font-size="14.00"> </text>
</g>
<!-- Specimen&#45;&gt;Patient -->
<g id="edge2" class="edge">
<title>Specimen&#45;&gt;Patient</title>
<path fill="none" stroke="black" d="M905.09,-403.26C907.88,-389.28 910.65,-375.34 913.32,-361.94"/>
<polygon fill="black" stroke="black" points="916.81,-362.31 915.33,-351.82 909.95,-360.94 916.81,-362.31"/>
<text text-anchor="middle" x="973" y="-373.8" font-family="Times,serif" font-size="14.00">derived_from_subject</text>
</g>
<!-- ResearchSubject -->
<g id="node7" class="node">
<title>ResearchSubject</title>
<path fill="none" stroke="black" d="M646,-754.5C646,-754.5 933,-754.5 933,-754.5 939,-754.5 945,-760.5 945,-766.5 945,-766.5 945,-857.5 945,-857.5 945,-863.5 939,-869.5 933,-869.5 933,-869.5 646,-869.5 646,-869.5 640,-869.5 634,-863.5 634,-857.5 634,-857.5 634,-766.5 634,-766.5 634,-760.5 640,-754.5 646,-754.5"/>
<text text-anchor="middle" x="689" y="-808.3" font-family="Times,serif" font-size="14.00">ResearchSubject</text>
<polyline fill="none" stroke="black" points="744,-754.5 744,-869.5 "/>
<text text-anchor="middle" x="754" y="-808.3" font-family="Times,serif" font-size="14.00"> </text>
<polyline fill="none" stroke="black" points="764,-754.5 764,-869.5 "/>
<text text-anchor="middle" x="844.5" y="-854.3" font-family="Times,serif" font-size="14.00">describedBy</text>
<polyline fill="none" stroke="black" points="764,-846.5 925,-846.5 "/>
<text text-anchor="middle" x="844.5" y="-831.3" font-family="Times,serif" font-size="14.00">harmonized_disease_type</text>
<polyline fill="none" stroke="black" points="764,-823.5 925,-823.5 "/>
<text text-anchor="middle" x="844.5" y="-808.3" font-family="Times,serif" font-size="14.00">id</text>
<polyline fill="none" stroke="black" points="764,-800.5 925,-800.5 "/>
<text text-anchor="middle" x="844.5" y="-785.3" font-family="Times,serif" font-size="14.00">primary_disease_site</text>
<polyline fill="none" stroke="black" points="764,-777.5 925,-777.5 "/>
<text text-anchor="middle" x="844.5" y="-762.3" font-family="Times,serif" font-size="14.00">primary_disease_type</text>
<polyline fill="none" stroke="black" points="925,-754.5 925,-869.5 "/>
<text text-anchor="middle" x="935" y="-808.3" font-family="Times,serif" font-size="14.00"> </text>
</g>
<!-- ResearchSubject&#45;&gt;Project -->
<g id="edge6" class="edge">
<title>ResearchSubject&#45;&gt;Project</title>
<path fill="none" stroke="black" d="M633.99,-801.93C545.49,-789.94 436.82,-762.97 357.5,-703 243.36,-616.71 172.13,-463.12 135.1,-361.53"/>
<polygon fill="black" stroke="black" points="138.31,-360.09 131.63,-351.87 131.72,-362.46 138.31,-360.09"/>
<text text-anchor="middle" x="409.5" y="-549.3" font-family="Times,serif" font-size="14.00">associated_project</text>
</g>
<!-- ResearchSubject&#45;&gt;Specimen -->
<g id="edge12" class="edge">
<title>ResearchSubject&#45;&gt;Specimen</title>
<path fill="none" stroke="black" d="M808.48,-754.28C812.78,-741.43 817.55,-727.16 822.51,-712.34"/>
<polygon fill="black" stroke="black" points="825.94,-713.12 825.8,-702.53 819.31,-710.9 825.94,-713.12"/>
<text text-anchor="middle" x="844" y="-724.8" font-family="Times,serif" font-size="14.00">specimen</text>
</g>
<!-- ResearchSubject&#45;&gt;Identifier -->
<g id="edge15" class="edge">
<title>ResearchSubject&#45;&gt;Identifier</title>
<path fill="none" stroke="black" d="M746.92,-754.32C737.32,-738.5 728.5,-720.77 723.5,-703 691.18,-588.15 700.63,-273.46 754.5,-167 769.87,-136.62 798.01,-114.01 827.49,-97.55"/>
<polygon fill="black" stroke="black" points="829.51,-100.44 836.67,-92.63 826.21,-94.26 829.51,-100.44"/>
<text text-anchor="middle" x="737" y="-373.8" font-family="Times,serif" font-size="14.00">identifier</text>
</g>
<!-- Diagnosis -->
<g id="node9" class="node">
<title>Diagnosis</title>
<path fill="none" stroke="black" d="M1202.5,-438C1202.5,-438 1484.5,-438 1484.5,-438 1490.5,-438 1496.5,-444 1496.5,-450 1496.5,-450 1496.5,-656 1496.5,-656 1496.5,-662 1490.5,-668 1484.5,-668 1484.5,-668 1202.5,-668 1202.5,-668 1196.5,-668 1190.5,-662 1190.5,-656 1190.5,-656 1190.5,-450 1190.5,-450 1190.5,-444 1196.5,-438 1202.5,-438"/>
<text text-anchor="middle" x="1226.5" y="-549.3" font-family="Times,serif" font-size="14.00">Diagnosis</text>
<polyline fill="none" stroke="black" points="1262.5,-438 1262.5,-668 "/>
<text text-anchor="middle" x="1272.5" y="-549.3" font-family="Times,serif" font-size="14.00"> </text>
<polyline fill="none" stroke="black" points="1282.5,-438 1282.5,-668 "/>
<text text-anchor="middle" x="1379.5" y="-652.8" font-family="Times,serif" font-size="14.00">age_at_diagnosis</text>
<polyline fill="none" stroke="black" points="1282.5,-645 1476.5,-645 "/>
<text text-anchor="middle" x="1379.5" y="-629.8" font-family="Times,serif" font-size="14.00">describedBy</text>
<polyline fill="none" stroke="black" points="1282.5,-622 1476.5,-622 "/>
<text text-anchor="middle" x="1379.5" y="-606.8" font-family="Times,serif" font-size="14.00">grade</text>
<polyline fill="none" stroke="black" points="1282.5,-599 1476.5,-599 "/>
<text text-anchor="middle" x="1379.5" y="-583.8" font-family="Times,serif" font-size="14.00">harmonized_primary_diagnosis</text>
<polyline fill="none" stroke="black" points="1282.5,-576 1476.5,-576 "/>
<text text-anchor="middle" x="1379.5" y="-560.8" font-family="Times,serif" font-size="14.00">id</text>
<polyline fill="none" stroke="black" points="1282.5,-553 1476.5,-553 "/>
<text text-anchor="middle" x="1379.5" y="-537.8" font-family="Times,serif" font-size="14.00">morphology</text>
<polyline fill="none" stroke="black" points="1282.5,-530 1476.5,-530 "/>
<text text-anchor="middle" x="1379.5" y="-514.8" font-family="Times,serif" font-size="14.00">primary_diagnosis</text>
<polyline fill="none" stroke="black" points="1282.5,-507 1476.5,-507 "/>
<text text-anchor="middle" x="1379.5" y="-491.8" font-family="Times,serif" font-size="14.00">research_subject</text>
<polyline fill="none" stroke="black" points="1282.5,-484 1476.5,-484 "/>
<text text-anchor="middle" x="1379.5" y="-468.8" font-family="Times,serif" font-size="14.00">specimen</text>
<polyline fill="none" stroke="black" points="1282.5,-461 1476.5,-461 "/>
<text text-anchor="middle" x="1379.5" y="-445.8" font-family="Times,serif" font-size="14.00">stage</text>
<polyline fill="none" stroke="black" points="1476.5,-438 1476.5,-668 "/>
<text text-anchor="middle" x="1486.5" y="-549.3" font-family="Times,serif" font-size="14.00"> </text>
</g>
<!-- ResearchSubject&#45;&gt;Diagnosis -->
<g id="edge11" class="edge">
<title>ResearchSubject&#45;&gt;Diagnosis</title>
<path fill="none" stroke="black" d="M945.45,-785.35C1018.8,-768.91 1105.53,-742.94 1176.5,-703 1191.22,-694.72 1205.76,-684.95 1219.75,-674.45"/>
<polygon fill="black" stroke="black" points="1222.11,-677.04 1227.92,-668.18 1217.85,-671.49 1222.11,-677.04"/>
<text text-anchor="middle" x="1165" y="-724.8" font-family="Times,serif" font-size="14.00">diagnosis</text>
</g>
<!-- File -->
<g id="node10" class="node">
<title>File</title>
<path fill="none" stroke="black" d="M482.5,-438C482.5,-438 664.5,-438 664.5,-438 670.5,-438 676.5,-444 676.5,-450 676.5,-450 676.5,-656 676.5,-656 676.5,-662 670.5,-668 664.5,-668 664.5,-668 482.5,-668 482.5,-668 476.5,-668 470.5,-662 470.5,-656 470.5,-656 470.5,-450 470.5,-450 470.5,-444 476.5,-438 482.5,-438"/>
<text text-anchor="middle" x="489.5" y="-549.3" font-family="Times,serif" font-size="14.00">File</text>
<polyline fill="none" stroke="black" points="508.5,-438 508.5,-668 "/>
<text text-anchor="middle" x="518.5" y="-549.3" font-family="Times,serif" font-size="14.00"> </text>
<polyline fill="none" stroke="black" points="528.5,-438 528.5,-668 "/>
<text text-anchor="middle" x="592.5" y="-652.8" font-family="Times,serif" font-size="14.00">byte_size</text>
<polyline fill="none" stroke="black" points="528.5,-645 656.5,-645 "/>
<text text-anchor="middle" x="592.5" y="-629.8" font-family="Times,serif" font-size="14.00">checksum</text>
<polyline fill="none" stroke="black" points="528.5,-622 656.5,-622 "/>
<text text-anchor="middle" x="592.5" y="-606.8" font-family="Times,serif" font-size="14.00">data_category</text>
<polyline fill="none" stroke="black" points="528.5,-599 656.5,-599 "/>
<text text-anchor="middle" x="592.5" y="-583.8" font-family="Times,serif" font-size="14.00">data_type</text>
<polyline fill="none" stroke="black" points="528.5,-576 656.5,-576 "/>
<text text-anchor="middle" x="592.5" y="-560.8" font-family="Times,serif" font-size="14.00">describedBy</text>
<polyline fill="none" stroke="black" points="528.5,-553 656.5,-553 "/>
<text text-anchor="middle" x="592.5" y="-537.8" font-family="Times,serif" font-size="14.00">file_format</text>
<polyline fill="none" stroke="black" points="528.5,-530 656.5,-530 "/>
<text text-anchor="middle" x="592.5" y="-514.8" font-family="Times,serif" font-size="14.00">id</text>
<polyline fill="none" stroke="black" points="528.5,-507 656.5,-507 "/>
<text text-anchor="middle" x="592.5" y="-491.8" font-family="Times,serif" font-size="14.00">label</text>
<polyline fill="none" stroke="black" points="528.5,-484 656.5,-484 "/>
<text text-anchor="middle" x="592.5" y="-468.8" font-family="Times,serif" font-size="14.00">media_type</text>
<polyline fill="none" stroke="black" points="528.5,-461 656.5,-461 "/>
<text text-anchor="middle" x="592.5" y="-445.8" font-family="Times,serif" font-size="14.00">reference_assembly</text>
<polyline fill="none" stroke="black" points="656.5,-438 656.5,-668 "/>
<text text-anchor="middle" x="666.5" y="-549.3" font-family="Times,serif" font-size="14.00"> </text>
</g>
<!-- ResearchSubject&#45;&gt;File -->
<g id="edge9" class="edge">
<title>ResearchSubject&#45;&gt;File</title>
<path fill="none" stroke="black" d="M692.19,-754.36C685.17,-748.58 678.5,-742.45 672.5,-736 656.24,-718.53 641.76,-697.88 629.22,-676.89"/>
<polygon fill="black" stroke="black" points="632.22,-675.07 624.15,-668.2 626.17,-678.6 632.22,-675.07"/>
<text text-anchor="middle" x="681.5" y="-724.8" font-family="Times,serif" font-size="14.00">file</text>
</g>
<!-- Diagnosis&#45;&gt;Identifier -->
<g id="edge14" class="edge">
<title>Diagnosis&#45;&gt;Identifier</title>
<path fill="none" stroke="black" d="M1350.82,-437.88C1354.65,-339.57 1353.04,-207.31 1320.5,-167 1286.42,-124.78 1150.84,-93.99 1049.71,-76.33"/>
<polygon fill="black" stroke="black" points="1050.18,-72.86 1039.73,-74.61 1048.99,-79.76 1050.18,-72.86"/>
<text text-anchor="middle" x="1377" y="-255.8" font-family="Times,serif" font-size="14.00">identifier</text>
</g>
<!-- Treatment -->
<g id="node13" class="node">
<title>Treatment</title>
<path fill="none" stroke="black" d="M1058,-190.5C1058,-190.5 1299,-190.5 1299,-190.5 1305,-190.5 1311,-196.5 1311,-202.5 1311,-202.5 1311,-316.5 1311,-316.5 1311,-322.5 1305,-328.5 1299,-328.5 1299,-328.5 1058,-328.5 1058,-328.5 1052,-328.5 1046,-322.5 1046,-316.5 1046,-316.5 1046,-202.5 1046,-202.5 1046,-196.5 1052,-190.5 1058,-190.5"/>
<text text-anchor="middle" x="1083" y="-255.8" font-family="Times,serif" font-size="14.00">Treatment</text>
<polyline fill="none" stroke="black" points="1120,-190.5 1120,-328.5 "/>
<text text-anchor="middle" x="1130" y="-255.8" font-family="Times,serif" font-size="14.00"> </text>
<polyline fill="none" stroke="black" points="1140,-190.5 1140,-328.5 "/>
<text text-anchor="middle" x="1215.5" y="-313.3" font-family="Times,serif" font-size="14.00">days_to_treatment_start</text>
<polyline fill="none" stroke="black" points="1140,-305.5 1291,-305.5 "/>
<text text-anchor="middle" x="1215.5" y="-290.3" font-family="Times,serif" font-size="14.00">days_treatment_end</text>
<polyline fill="none" stroke="black" points="1140,-282.5 1291,-282.5 "/>
<text text-anchor="middle" x="1215.5" y="-267.3" font-family="Times,serif" font-size="14.00">describedBy</text>
<polyline fill="none" stroke="black" points="1140,-259.5 1291,-259.5 "/>
<text text-anchor="middle" x="1215.5" y="-244.3" font-family="Times,serif" font-size="14.00">id</text>
<polyline fill="none" stroke="black" points="1140,-236.5 1291,-236.5 "/>
<text text-anchor="middle" x="1215.5" y="-221.3" font-family="Times,serif" font-size="14.00">treatment_outcome</text>
<polyline fill="none" stroke="black" points="1140,-213.5 1291,-213.5 "/>
<text text-anchor="middle" x="1215.5" y="-198.3" font-family="Times,serif" font-size="14.00">treatment_type</text>
<polyline fill="none" stroke="black" points="1291,-190.5 1291,-328.5 "/>
<text text-anchor="middle" x="1301" y="-255.8" font-family="Times,serif" font-size="14.00"> </text>
</g>
<!-- Diagnosis&#45;&gt;Treatment -->
<g id="edge4" class="edge">
<title>Diagnosis&#45;&gt;Treatment</title>
<path fill="none" stroke="black" d="M1278.76,-437.63C1259.78,-404.09 1239.48,-368.23 1222.15,-337.61"/>
<polygon fill="black" stroke="black" points="1225.08,-335.68 1217.1,-328.7 1218.98,-339.13 1225.08,-335.68"/>
<text text-anchor="middle" x="1273" y="-373.8" font-family="Times,serif" font-size="14.00">treatment</text>
</g>
<!-- File&#45;&gt;Project -->
<g id="edge7" class="edge">
<title>File&#45;&gt;Project</title>
<path fill="none" stroke="black" d="M470.48,-483.07C429.04,-456.6 380.3,-427 334.5,-403 283.89,-376.48 265.38,-381.58 216.5,-352 216.21,-351.82 215.91,-351.64 215.62,-351.46"/>
<polygon fill="black" stroke="black" points="217.42,-348.46 207.09,-346.09 213.69,-354.38 217.42,-348.46"/>
<text text-anchor="middle" x="344.5" y="-373.8" font-family="Times,serif" font-size="14.00">associated_project</text>
</g>
<!-- File&#45;&gt;Identifier -->
<g id="edge21" class="edge">
<title>File&#45;&gt;Identifier</title>
<path fill="none" stroke="black" d="M588.35,-437.76C602.79,-332.57 624.66,-189.5 639.5,-167 678.22,-108.3 752.86,-81.34 817.24,-69.04"/>
<polygon fill="black" stroke="black" points="818.25,-72.41 827.47,-67.19 817.01,-65.53 818.25,-72.41"/>
<text text-anchor="middle" x="665" y="-255.8" font-family="Times,serif" font-size="14.00">identifier</text>
</g>
<!-- Quantity -->
<g id="node11" class="node">
<title>Quantity</title>
<path fill="none" stroke="black" d="M237.5,-241.5C237.5,-241.5 365.5,-241.5 365.5,-241.5 371.5,-241.5 377.5,-247.5 377.5,-253.5 377.5,-253.5 377.5,-265.5 377.5,-265.5 377.5,-271.5 371.5,-277.5 365.5,-277.5 365.5,-277.5 237.5,-277.5 237.5,-277.5 231.5,-277.5 225.5,-271.5 225.5,-265.5 225.5,-265.5 225.5,-253.5 225.5,-253.5 225.5,-247.5 231.5,-241.5 237.5,-241.5"/>
<text text-anchor="middle" x="258" y="-255.8" font-family="Times,serif" font-size="14.00">Quantity</text>
<polyline fill="none" stroke="black" points="290.5,-241.5 290.5,-277.5 "/>
<text text-anchor="middle" x="300.5" y="-255.8" font-family="Times,serif" font-size="14.00"> </text>
<polyline fill="none" stroke="black" points="310.5,-241.5 310.5,-277.5 "/>
<text text-anchor="middle" x="334" y="-255.8" font-family="Times,serif" font-size="14.00">value</text>
<polyline fill="none" stroke="black" points="357.5,-241.5 357.5,-277.5 "/>
<text text-anchor="middle" x="367.5" y="-255.8" font-family="Times,serif" font-size="14.00"> </text>
</g>
<!-- Quantity&#45;&gt;Coding -->
<g id="edge3" class="edge">
<title>Quantity&#45;&gt;Coding</title>
<path fill="none" stroke="black" d="M295,-241.24C286.75,-217.27 274.21,-172.49 279.5,-134 280.4,-127.43 281.73,-120.62 283.29,-113.91"/>
<polygon fill="black" stroke="black" points="286.69,-114.74 285.71,-104.19 279.9,-113.05 286.69,-114.74"/>
<text text-anchor="middle" x="290.5" y="-137.8" font-family="Times,serif" font-size="14.00">unit</text>
</g>
<!-- Quantity&#45;&gt;Coding -->
<g id="edge5" class="edge">
<title>Quantity&#45;&gt;Coding</title>
<path fill="none" stroke="black" d="M301.57,-241.18C301.66,-217.13 301.76,-172.26 301.5,-134 301.46,-127.68 301.4,-121.05 301.32,-114.47"/>
<polygon fill="black" stroke="black" points="304.82,-114.17 301.2,-104.21 297.82,-114.25 304.82,-114.17"/>
<text text-anchor="middle" x="334.5" y="-137.8" font-family="Times,serif" font-size="14.00">comparator</text>
</g>
<!-- Treatment&#45;&gt;Identifier -->
<g id="edge20" class="edge">
<title>Treatment&#45;&gt;Identifier</title>
<path fill="none" stroke="black" d="M1094.87,-190.4C1057.55,-160.02 1014.87,-125.26 982.78,-99.13"/>
<polygon fill="black" stroke="black" points="984.82,-96.28 974.86,-92.68 980.4,-101.71 984.82,-96.28"/>
<text text-anchor="middle" x="1067" y="-137.8" font-family="Times,serif" font-size="14.00">identifier</text>
</g>
<!-- Patient&#45;&gt;ResearchSubject -->
<g id="edge1" class="edge">
<title>Patient&#45;&gt;ResearchSubject</title>
<path fill="none" stroke="black" d="M1027.62,-348.7C1031.85,-355.55 1035.55,-362.67 1038.5,-370 1066.12,-438.7 1068.67,-641.46 1027.5,-703 1009.49,-729.91 983.03,-750.21 954.22,-765.5"/>
<polygon fill="black" stroke="black" points="952.54,-762.43 945.21,-770.08 955.71,-768.67 952.54,-762.43"/>
<text text-anchor="middle" x="1118.5" y="-549.3" font-family="Times,serif" font-size="14.00">research_subject_list</text>
</g>
<!-- Patient&#45;&gt;Identifier -->
<g id="edge19" class="edge">
<title>Patient&#45;&gt;Identifier</title>
<path fill="none" stroke="black" d="M933.5,-167.22C933.5,-144.88 933.5,-121.98 933.5,-103.02"/>
<polygon fill="black" stroke="black" points="937,-102.93 933.5,-92.93 930,-102.93 937,-102.93"/>
<text text-anchor="middle" x="959" y="-137.8" font-family="Times,serif" font-size="14.00">identifier</text>
</g>
</g>
</svg>
